<svg width="176" height="56" viewBox="0 0 176 56" fill="none" xmlns="http://www.w3.org/2000/svg">
<path d="M5.25961 48.0979C5.6174 49.3183 6.01098 50.4669 6.36877 51.472C6.72657 52.477 7.08437 53.4103 7.44216 54.2358C7.69262 53.3385 7.97886 52.2616 8.22932 51.0412C8.47977 49.8209 8.76601 48.5287 9.01647 47.1288H9.80362C9.6605 47.9544 9.51738 48.7081 9.37426 49.426C9.23115 50.1439 9.08803 50.8259 8.94491 51.472C8.80179 52.1181 8.62289 52.7283 8.44399 53.3385C8.26509 53.9487 8.0862 54.523 7.87152 55.0973H7.01281C6.83391 54.6665 6.65501 54.2358 6.47611 53.7692C6.29722 53.3026 6.11832 52.8718 5.93942 52.4052C5.76052 51.9386 5.58162 51.472 5.40272 50.9336C5.22383 50.431 5.04493 49.8926 4.86603 49.3183C4.68713 49.8926 4.50823 50.431 4.32934 50.9336C4.15044 51.4361 3.97154 51.9386 3.79264 52.4052C3.61374 52.8718 3.43484 53.3385 3.25595 53.7692C3.07705 54.1999 2.89815 54.6306 2.71925 55.0614H1.9321C1.71742 54.4871 1.53852 53.9128 1.35963 53.3026C1.18073 52.6924 1.03761 52.0822 0.858711 51.4361C0.715593 50.79 0.572474 50.108 0.429356 49.3901C0.286237 48.6722 0.143119 47.9185 0 47.0929H0.787152C0.894491 47.7749 1.03761 48.421 1.14495 49.0671C1.25229 49.7132 1.39541 50.3593 1.53852 50.9695C1.68164 51.5797 1.82476 52.154 1.96788 52.6924C2.111 53.2308 2.25412 53.7333 2.39724 54.1999C2.71925 53.3385 3.07705 52.4411 3.47062 51.4361C3.8642 50.4311 4.222 49.3183 4.57979 48.0979H5.25961Z" fill="#351044"/>
<path d="M16.3514 47.1288H17.1385V55.1332H16.3514V51.2925H12.022V55.1332H11.2349V47.1288H12.022V50.6105H16.3514V47.1288Z" fill="#351044"/>
<path d="M24.5807 55.0973C24.4375 54.7024 24.2944 54.3435 24.1513 53.9487C24.0082 53.5538 23.9008 53.2308 23.7935 52.8718H19.8935C19.7504 53.2308 19.6431 53.5538 19.5 53.9487C19.3568 54.3076 19.2495 54.7024 19.1064 55.0614H18.2834C18.5697 54.2358 18.8559 53.4461 19.1422 52.7283C19.4284 52.0104 19.6789 51.3284 19.9293 50.6823C20.1798 50.0362 20.4302 49.426 20.7165 48.8517C21.0027 48.2774 21.2532 47.6672 21.5036 47.057H22.1834C22.4697 47.6313 22.7201 48.2415 22.9706 48.8158C23.221 49.426 23.4715 50.0362 23.7219 50.6823C23.9724 51.3284 24.2586 52.0104 24.5091 52.7283C24.7596 53.4461 25.0816 54.2358 25.4036 55.0614H24.5807V55.0973ZM21.8256 48.0262C21.5394 48.6722 21.2532 49.3542 20.9669 50.0362C20.6807 50.7182 20.3944 51.472 20.1082 52.2616H23.5073C23.221 51.472 22.9348 50.7182 22.6486 50.0362C22.3623 49.3542 22.1119 48.6722 21.8256 48.0262Z" fill="#351044"/>
<path d="M31.0209 47.1288V47.8108H28.4806V55.1332H27.6934V47.8108H25.1531V47.1288H31.0209Z" fill="#351044"/>
<path d="M40.3236 55.0972C40.1805 54.8459 40.0016 54.5229 39.7512 54.164C39.5007 53.805 39.286 53.4102 38.9998 53.0154C38.7136 52.6205 38.4273 52.1898 38.1411 51.7591C37.8549 51.3283 37.5328 50.8976 37.2466 50.5028C36.9604 50.1079 36.6741 49.7131 36.3879 49.3542C36.1017 48.9952 35.8512 48.6722 35.6365 48.4209V55.169H34.8494V47.1646H35.4576C35.8512 47.5954 36.2805 48.0979 36.7099 48.6722C37.1393 49.2465 37.6044 49.8208 38.0338 50.431C38.4631 51.0412 38.8567 51.6155 39.2503 52.1898C39.6438 52.7641 39.9301 53.2666 40.1805 53.6614V47.1646H40.9677V55.169H40.3236V55.0972Z" fill="#351044"/>
<path d="M43.043 55.0973V47.0929H47.6228V47.7749H43.7943V50.5387H47.1934V51.2207H43.7943V54.4153H47.909V55.0973H43.043Z" fill="#351044"/>
<path d="M49.4116 55.0973V47.0929H54.0272V47.7749H50.1988V50.5387H53.5978V51.2207H50.1988V54.4153H54.3134V55.0973H49.4116Z" fill="#351044"/>
<path d="M62.1134 51.113C62.1134 51.795 62.006 52.4052 61.7914 52.9077C61.5767 53.4102 61.2904 53.841 60.8969 54.164C60.5033 54.4871 60.0382 54.7383 59.5015 54.9178C58.9648 55.0973 58.3923 55.169 57.7483 55.169C57.4262 55.169 57.1042 55.1691 56.7464 55.1332C56.3886 55.0973 56.0666 55.0614 55.8162 54.9896V47.2724C56.0666 47.2006 56.3886 47.1288 56.7464 47.0929C57.1042 47.057 57.4262 47.057 57.7483 47.057C58.3923 47.057 58.9648 47.1288 59.5015 47.3083C60.0382 47.4877 60.5033 47.739 60.8969 48.062C61.2904 48.3851 61.5767 48.8158 61.7914 49.3183C62.006 49.8208 62.1134 50.431 62.1134 51.113ZM56.5675 54.4153C56.6033 54.4153 56.7464 54.4512 56.9253 54.4512C57.1042 54.4512 57.4262 54.4871 57.8198 54.4871C58.3923 54.4871 58.8932 54.4153 59.3226 54.2358C59.7519 54.0922 60.1097 53.841 60.396 53.5538C60.6822 53.2667 60.8969 52.9077 61.04 52.477C61.1831 52.0463 61.2547 51.5797 61.2547 51.0771C61.2547 50.5387 61.1831 50.0721 61.04 49.6773C60.8969 49.2824 60.6822 48.9235 60.396 48.6005C60.1097 48.3133 59.7519 48.0979 59.3226 47.9185C58.8932 47.7749 58.3923 47.6672 57.8198 47.6672C57.3905 47.6672 57.1042 47.6672 56.9253 47.7031C56.7464 47.739 56.6033 47.739 56.5675 47.739V54.4153Z" fill="#351044"/>
<path d="M65.5841 54.5947C66.1924 54.5947 66.6933 54.4871 67.0153 54.2358C67.3373 53.9845 67.5162 53.6256 67.5162 53.1231C67.5162 52.8359 67.4447 52.5847 67.3373 52.4052C67.23 52.2257 67.0869 52.0463 66.908 51.9027C66.7291 51.7591 66.5144 51.6514 66.264 51.5437C66.0135 51.4361 65.763 51.3643 65.5126 51.2566C65.1906 51.113 64.9043 51.0053 64.6181 50.8618C64.3676 50.7182 64.153 50.5746 63.9383 50.3951C63.7594 50.2157 63.6163 50.0362 63.5089 49.7849C63.4016 49.5696 63.3658 49.3183 63.3658 48.9953C63.3658 48.3133 63.5805 47.7749 64.0456 47.4518C64.5107 47.0929 65.119 46.9134 65.9419 46.9134C66.1566 46.9134 66.3713 46.9134 66.586 46.9493C66.8006 46.9852 66.9795 47.0211 67.1584 47.057C67.3373 47.0929 67.5162 47.1647 67.6594 47.2365C67.8025 47.3083 67.9456 47.38 68.0172 47.4159L67.7309 48.062C67.5162 47.9185 67.23 47.7749 66.908 47.7031C66.586 47.5954 66.264 47.5595 65.8704 47.5595C65.6199 47.5595 65.3695 47.5954 65.1906 47.6313C64.9759 47.6672 64.797 47.7749 64.6539 47.8826C64.5108 47.9902 64.3676 48.1338 64.2961 48.3133C64.2245 48.4928 64.153 48.6722 64.153 48.9235C64.153 49.1747 64.1887 49.3901 64.2961 49.5337C64.4034 49.7132 64.5108 49.8567 64.6896 49.9644C64.8685 50.0721 65.0474 50.2157 65.2621 50.2875C65.4768 50.3592 65.7273 50.5028 65.9777 50.6105C66.2997 50.7541 66.586 50.8618 66.8722 51.0053C67.1584 51.1489 67.4089 51.2925 67.5878 51.472C67.8025 51.6514 67.9456 51.8668 68.0887 52.118C68.1961 52.3693 68.2676 52.6924 68.2676 53.0513C68.2676 53.7692 68.0172 54.3076 67.5162 54.6665C67.0153 55.0255 66.3355 55.2049 65.4768 55.2049C65.1548 55.2049 64.9043 55.169 64.6539 55.1331C64.4034 55.0973 64.1887 55.0614 63.9741 54.9896C63.7594 54.9178 63.6163 54.8819 63.4731 54.8101C63.33 54.7383 63.2227 54.7024 63.1511 54.6306L63.4016 53.9486C63.4731 53.9845 63.5805 54.0563 63.7236 54.1281C63.8667 54.1999 64.0098 54.2358 64.1887 54.3076C64.3676 54.3794 64.5465 54.4153 64.797 54.4512C65.0474 54.5947 65.2979 54.5947 65.5841 54.5947Z" fill="#351044"/>
<path d="M77.4986 47.1288V47.8108H74.9583V55.1332H74.1711V47.8108H71.595V47.1288H77.4986Z" fill="#351044"/>
<path d="M85.6922 51.113C85.6922 51.795 85.5848 52.4052 85.4059 52.9077C85.1912 53.4461 84.9408 53.8769 84.583 54.1999C84.2252 54.5588 83.8316 54.8101 83.4023 54.9896C82.9371 55.169 82.472 55.2408 81.9711 55.2408C81.4702 55.2408 80.9692 55.169 80.5399 54.9896C80.1105 54.8101 79.6812 54.5588 79.3592 54.1999C79.0014 53.841 78.7509 53.4102 78.5362 52.9077C78.3216 52.3693 78.25 51.795 78.25 51.113C78.25 50.431 78.3573 49.8208 78.5362 49.3183C78.7509 48.8158 79.0014 48.3492 79.3592 48.0261C79.717 47.7031 80.1105 47.4159 80.5399 47.2365C81.005 47.057 81.4702 46.9852 81.9711 46.9852C82.472 46.9852 82.9729 47.057 83.4023 47.2365C83.8674 47.4159 84.261 47.6672 84.583 48.0261C84.9408 48.3851 85.1912 48.8158 85.4059 49.3183C85.5848 49.8208 85.6922 50.431 85.6922 51.113ZM84.8692 51.113C84.8692 50.5746 84.7977 50.108 84.6546 49.6773C84.5114 49.2465 84.3325 48.8876 84.0821 48.6004C83.8316 48.3133 83.5096 48.062 83.1518 47.9185C82.794 47.7749 82.4004 47.6672 81.9353 47.6672C81.5059 47.6672 81.0766 47.739 80.7188 47.9185C80.361 48.062 80.0748 48.3133 79.7885 48.6004C79.5381 48.8876 79.3234 49.2465 79.216 49.6773C79.0729 50.108 79.0014 50.5746 79.0014 51.113C79.0014 51.6514 79.0729 52.1181 79.216 52.5488C79.3592 52.9795 79.5381 53.3384 79.7885 53.6256C80.039 53.9128 80.361 54.164 80.7188 54.3076C81.0766 54.4512 81.4702 54.5588 81.9353 54.5588C82.3647 54.5588 82.794 54.4871 83.1518 54.3076C83.5096 54.1281 83.7958 53.9128 84.0821 53.6256C84.3325 53.3384 84.5472 52.9795 84.6546 52.5488C84.7977 52.1181 84.8692 51.6514 84.8692 51.113Z" fill="#351044"/>
<path d="M91.9536 55.1691C91.8105 55.1691 91.6673 55.1691 91.4885 55.1691C91.3096 55.1691 91.1307 55.1332 90.9518 55.1332C90.7729 55.0973 90.594 55.0973 90.4508 55.0614C90.3077 55.0255 90.1646 54.9896 90.0215 54.9896V47.3083C90.1646 47.2724 90.3077 47.2365 90.4866 47.2006C90.6655 47.1647 90.8444 47.1647 91.0233 47.1288C91.2022 47.0929 91.3811 47.0929 91.56 47.0929C91.7389 47.0929 91.882 47.0929 92.0251 47.0929C92.4545 47.0929 92.8481 47.1288 93.2417 47.2006C93.6352 47.2724 93.9572 47.3801 94.2435 47.5595C94.5297 47.7031 94.7802 47.9185 94.9233 48.2056C95.1022 48.4569 95.1737 48.8158 95.1737 49.1748C95.1737 49.6055 95.0664 49.9644 94.8517 50.2875C94.6371 50.6105 94.3508 50.79 93.9572 50.8977C94.1719 50.9695 94.3866 51.0412 94.6013 51.113C94.7802 51.2207 94.9591 51.3284 95.1022 51.5079C95.2453 51.6514 95.3527 51.8668 95.4242 52.0822C95.4958 52.2975 95.5315 52.5847 95.5315 52.9077C95.5315 53.6615 95.2453 54.2358 94.6371 54.6306C94.0288 55.0255 93.2059 55.1691 91.9536 55.1691ZM90.8444 50.6105H92.3472C92.6334 50.6105 92.8839 50.5746 93.1343 50.5387C93.3848 50.5028 93.5994 50.4311 93.7783 50.3234C93.9572 50.2157 94.1004 50.0721 94.2077 49.8926C94.315 49.7132 94.3866 49.4619 94.3866 49.1748C94.3866 48.9235 94.315 48.7081 94.2077 48.5287C94.1004 48.3492 93.9215 48.2056 93.7068 48.0979C93.4921 47.9903 93.2417 47.9185 92.9554 47.8467C92.6692 47.8108 92.3472 47.7749 91.9894 47.7749C91.7031 47.7749 91.4527 47.7749 91.2738 47.8108C91.0949 47.8108 90.916 47.8467 90.7729 47.8826V50.6105H90.8444ZM90.8444 51.2566V54.4153C90.9518 54.4153 91.1307 54.4512 91.3453 54.4512C91.56 54.4871 91.8105 54.4871 92.0609 54.4871C92.4187 54.4871 92.7407 54.4512 93.0985 54.4153C93.4206 54.3794 93.7426 54.2717 93.993 54.164C94.2435 54.0563 94.4582 53.8769 94.6013 53.6615C94.7444 53.4461 94.816 53.159 94.816 52.8359C94.816 52.5129 94.7802 52.2616 94.6728 52.0822C94.5655 51.8668 94.4224 51.7232 94.2077 51.5797C93.993 51.472 93.7784 51.3643 93.4921 51.3284C93.2059 51.2925 92.8839 51.2566 92.5261 51.2566H90.8444V51.2566Z" fill="#351044"/>
<path d="M97.3206 55.0973V47.0929H101.936V47.7749H98.0719V50.5387H101.471V51.2207H98.0719V54.4153H102.187V55.0973H97.3206Z" fill="#351044"/>
<path d="M112.634 51.113C112.634 51.795 112.527 52.4052 112.312 52.9077C112.097 53.4102 111.811 53.841 111.418 54.164C111.024 54.4871 110.559 54.7383 110.022 54.9178C109.486 55.0973 108.913 55.169 108.269 55.169C107.947 55.169 107.625 55.1691 107.267 55.1332C106.909 55.0973 106.587 55.0614 106.337 54.9896V47.2724C106.587 47.2006 106.909 47.1288 107.267 47.0929C107.625 47.057 107.947 47.057 108.269 47.057C108.913 47.057 109.486 47.1288 110.022 47.3083C110.559 47.4877 111.024 47.739 111.418 48.062C111.811 48.3851 112.097 48.8158 112.312 49.3183C112.527 49.8208 112.634 50.431 112.634 51.113ZM107.088 54.4153C107.124 54.4153 107.267 54.4512 107.446 54.4512C107.625 54.4871 107.947 54.4871 108.341 54.4871C108.913 54.4871 109.414 54.4153 109.843 54.2358C110.273 54.0922 110.63 53.841 110.917 53.5538C111.203 53.2667 111.418 52.9077 111.561 52.477C111.704 52.0463 111.775 51.5797 111.775 51.0771C111.775 50.5387 111.704 50.0721 111.561 49.6773C111.418 49.2465 111.203 48.9235 110.917 48.6005C110.63 48.3133 110.273 48.0979 109.843 47.9185C109.414 47.7749 108.913 47.6672 108.341 47.6672C107.911 47.6672 107.625 47.6672 107.446 47.7031C107.267 47.739 107.124 47.739 107.088 47.739V54.4153Z" fill="#351044"/>
<path d="M121.508 51.113C121.508 51.795 121.4 52.4052 121.221 52.9077C121.007 53.4461 120.756 53.8769 120.398 54.1999C120.041 54.5588 119.647 54.8101 119.218 54.9896C118.788 55.169 118.287 55.2408 117.787 55.2408C117.286 55.2408 116.785 55.169 116.355 54.9896C115.926 54.8101 115.497 54.5588 115.175 54.1999C114.817 53.841 114.566 53.4102 114.352 52.9077C114.137 52.3693 114.065 51.795 114.065 51.113C114.065 50.431 114.173 49.8208 114.352 49.3183C114.566 48.8158 114.817 48.3492 115.175 48.0261C115.532 47.7031 115.926 47.4159 116.355 47.2365C116.82 47.057 117.286 46.9852 117.787 46.9852C118.287 46.9852 118.788 47.057 119.218 47.2365C119.683 47.4159 120.076 47.6672 120.398 48.0261C120.72 48.3851 121.007 48.8158 121.221 49.3183C121.436 49.8208 121.508 50.431 121.508 51.113ZM120.685 51.113C120.685 50.5746 120.613 50.108 120.47 49.6773C120.327 49.2465 120.148 48.8876 119.898 48.6004C119.647 48.3133 119.325 48.062 118.967 47.9185C118.609 47.7749 118.216 47.6672 117.751 47.6672C117.286 47.6672 116.892 47.739 116.534 47.9185C116.176 48.062 115.89 48.3133 115.604 48.6004C115.318 48.8876 115.139 49.2465 115.031 49.6773C114.888 50.108 114.817 50.5746 114.817 51.113C114.817 51.6514 114.888 52.1181 115.031 52.5488C115.175 52.9795 115.353 53.3384 115.604 53.6256C115.854 53.9128 116.176 54.164 116.534 54.3076C116.892 54.4512 117.286 54.5588 117.751 54.5588C118.216 54.5588 118.609 54.4871 118.967 54.3076C119.325 54.1281 119.611 53.9128 119.898 53.6256C120.148 53.3384 120.363 52.9795 120.47 52.5488C120.577 52.1181 120.685 51.6514 120.685 51.113Z" fill="#351044"/>
<path d="M128.699 55.0972C128.556 54.8459 128.377 54.5229 128.127 54.164C127.876 53.805 127.662 53.4102 127.376 53.0154C127.089 52.6205 126.803 52.1898 126.517 51.7591C126.231 51.3283 125.909 50.8976 125.622 50.5028C125.336 50.1079 125.05 49.7131 124.764 49.3542C124.477 48.9952 124.227 48.6722 124.012 48.4209V55.169H123.225V47.1646H123.833C124.227 47.5954 124.656 48.0979 125.086 48.6722C125.515 49.2465 125.98 49.8208 126.409 50.431C126.839 51.0412 127.232 51.6155 127.626 52.1898C128.02 52.7641 128.306 53.2666 128.556 53.6614V47.1646H129.343V55.169H128.699V55.0972Z" fill="#351044"/>
<path d="M131.419 55.0973V47.0929H136.034V47.7749H132.206V50.5387H135.605V51.2207H132.206V54.4153H136.321V55.0973H131.419Z" fill="#351044"/>
<path d="M138.932 54.5947C138.932 54.7742 138.861 54.9177 138.753 55.0613C138.646 55.169 138.503 55.2408 138.288 55.2408C138.074 55.2408 137.931 55.169 137.823 55.0613C137.716 54.9536 137.644 54.7742 137.644 54.5947C137.644 54.4152 137.716 54.2716 137.823 54.1281C137.931 54.0204 138.074 53.9486 138.288 53.9486C138.503 53.9486 138.646 54.0204 138.753 54.1281C138.897 54.2716 138.932 54.4152 138.932 54.5947Z" fill="#351044"/>
<path d="M149.702 51.113C149.702 51.795 149.595 52.4052 149.38 52.9077C149.165 53.4102 148.879 53.841 148.485 54.164C148.092 54.4871 147.627 54.7383 147.09 54.9178C146.553 55.0973 145.981 55.169 145.337 55.169C145.015 55.169 144.693 55.1691 144.335 55.1332C143.977 55.0973 143.655 55.0614 143.405 54.9896V47.2724C143.655 47.2006 143.977 47.1288 144.335 47.0929C144.693 47.057 145.015 47.057 145.337 47.057C145.981 47.057 146.553 47.1288 147.09 47.3083C147.627 47.4877 148.092 47.739 148.485 48.062C148.879 48.3851 149.165 48.8158 149.38 49.3183C149.595 49.8208 149.702 50.431 149.702 51.113ZM144.156 54.4153C144.192 54.4153 144.335 54.4512 144.514 54.4512C144.693 54.4871 145.015 54.4871 145.408 54.4871C145.981 54.4871 146.482 54.4153 146.911 54.2358C147.341 54.0922 147.698 53.841 147.985 53.5538C148.271 53.2667 148.485 52.9077 148.629 52.477C148.772 52.0463 148.843 51.5797 148.843 51.0771C148.843 50.5387 148.772 50.0721 148.629 49.6773C148.485 49.2465 148.271 48.9235 147.985 48.6005C147.698 48.3133 147.341 48.0979 146.911 47.9185C146.482 47.7749 145.981 47.6672 145.408 47.6672C144.979 47.6672 144.693 47.6672 144.514 47.7031C144.335 47.739 144.192 47.739 144.156 47.739V54.4153Z" fill="#351044"/>
<path d="M158.575 51.113C158.575 51.795 158.468 52.4052 158.289 52.9077C158.074 53.4461 157.824 53.8769 157.466 54.1999C157.108 54.5588 156.715 54.8101 156.285 54.9896C155.856 55.169 155.355 55.2408 154.854 55.2408C154.353 55.2408 153.852 55.169 153.423 54.9896C152.994 54.8101 152.564 54.5588 152.242 54.1999C151.884 53.841 151.634 53.4102 151.419 52.9077C151.205 52.3693 151.133 51.795 151.133 51.113C151.133 50.431 151.24 49.8208 151.419 49.3183C151.634 48.8158 151.884 48.3492 152.242 48.0261C152.6 47.7031 152.994 47.4159 153.423 47.2365C153.888 47.057 154.353 46.9852 154.854 46.9852C155.355 46.9852 155.856 47.057 156.285 47.2365C156.75 47.4159 157.144 47.6672 157.466 48.0261C157.788 48.3851 158.074 48.8158 158.289 49.3183C158.504 49.8208 158.575 50.431 158.575 51.113ZM157.752 51.113C157.752 50.5746 157.681 50.108 157.538 49.6773C157.395 49.2465 157.216 48.8876 156.965 48.6004C156.715 48.3133 156.393 48.062 156.035 47.9185C155.677 47.7749 155.284 47.6672 154.818 47.6672C154.353 47.6672 153.96 47.739 153.602 47.9185C153.244 48.062 152.958 48.3133 152.672 48.6004C152.385 48.8876 152.206 49.2465 152.099 49.6773C151.956 50.108 151.884 50.5746 151.884 51.113C151.884 51.6514 151.956 52.1181 152.099 52.5488C152.242 52.9795 152.421 53.3384 152.672 53.6256C152.922 53.9128 153.244 54.164 153.602 54.3076C153.96 54.4512 154.353 54.5588 154.818 54.5588C155.284 54.5588 155.677 54.4871 156.035 54.3076C156.393 54.1281 156.679 53.9128 156.965 53.6256C157.216 53.3384 157.43 52.9795 157.538 52.5488C157.645 52.1181 157.752 51.6514 157.752 51.113Z" fill="#351044"/>
<path d="M165.767 55.0972C165.624 54.8459 165.445 54.5229 165.195 54.164C164.944 53.805 164.73 53.4102 164.443 53.0154C164.157 52.6205 163.871 52.1898 163.585 51.7591C163.298 51.3283 162.976 50.8976 162.69 50.5028C162.404 50.1079 162.118 49.7131 161.831 49.3542C161.545 48.9952 161.295 48.6722 161.08 48.4209V55.169H160.329V47.1646H160.937C161.33 47.5954 161.76 48.0979 162.189 48.6722C162.619 49.2465 163.084 49.8208 163.513 50.431C163.942 51.0412 164.336 51.6155 164.73 52.1898C165.123 52.7641 165.409 53.2666 165.66 53.6614V47.1646H166.447V55.169H165.767V55.0972Z" fill="#351044"/>
<path d="M168.486 55.0973V47.0929H173.102V47.7749H169.273V50.5387H172.673V51.2207H169.273V54.4153H173.388V55.0973H168.486Z" fill="#351044"/>
<path d="M176 54.5947C176 54.7742 175.928 54.9177 175.821 55.0613C175.714 55.169 175.571 55.2408 175.356 55.2408C175.141 55.2408 174.998 55.169 174.891 55.0613C174.783 54.9536 174.712 54.7742 174.712 54.5947C174.712 54.4152 174.783 54.2716 174.891 54.1281C174.998 54.0204 175.141 53.9486 175.356 53.9486C175.571 53.9486 175.714 54.0204 175.821 54.1281C175.964 54.2716 176 54.4152 176 54.5947Z" fill="#351044"/>
<path d="M128.878 4.02012C128.878 5.24052 128.485 6.20966 127.698 6.92754C126.91 7.64542 125.98 8.00436 124.907 8.00436C123.798 8.00436 122.832 7.64542 122.08 6.92754C121.293 6.20966 120.899 5.24052 120.899 4.02012C120.899 2.76384 121.293 1.7947 122.08 1.07682C122.867 0.35894 123.798 0 124.907 0C125.98 0 126.91 0.35894 127.698 1.07682C128.485 1.7947 128.878 2.76384 128.878 4.02012Z" fill="#902A47"/>
<path d="M0.107422 2.8715H7.22757V42.1395H0.107422V2.8715Z" fill="#351044"/>
<path d="M13.7395 13.4603C15.0633 13.0654 16.7808 12.7065 18.8918 12.3835C21.0028 12.0604 23.3284 11.8809 25.9046 11.8809C28.3018 11.8809 30.3412 12.204 31.9513 12.886C33.5614 13.5321 34.8495 14.4653 35.8155 15.6498C36.7816 16.8343 37.4614 18.2701 37.855 19.9571C38.2485 21.6441 38.4632 23.4747 38.4632 25.4848V42.1396H31.5935V26.5616C31.5935 24.9822 31.4862 23.6183 31.2715 22.5056C31.0568 21.3928 30.7348 20.4955 30.2697 19.7776C29.8046 19.0956 29.1605 18.5572 28.3376 18.2342C27.5147 17.9111 26.5486 17.7675 25.3679 17.7675C24.5092 17.7675 23.6147 17.8393 22.6486 17.947C21.7184 18.0547 21.0028 18.1624 20.5734 18.2342V42.1396H13.7395V13.4603Z" fill="#351044"/>
<path d="M44.8677 4.6662L51.7016 3.51759V12.4552H62.2208V18.1623H51.7016V30.2227C51.7016 32.5917 52.0952 34.3146 52.8465 35.3197C53.5979 36.3247 54.886 36.8631 56.675 36.8631C57.9272 36.8631 59.0364 36.7195 59.9667 36.4683C60.9327 36.217 61.6841 35.9657 62.2566 35.7145L63.4015 41.1704C62.6144 41.4934 61.5768 41.8524 60.2887 42.2113C59.0006 42.5702 57.4979 42.7497 55.7805 42.7497C53.6695 42.7497 51.9163 42.4625 50.4851 41.8882C49.0897 41.3139 47.9447 40.4884 47.1218 39.4116C46.2989 38.3347 45.7264 37.0426 45.3686 35.4991C45.0466 33.9557 44.8677 32.2328 44.8677 30.2586V4.6662V4.6662Z" fill="#351044"/>
<path d="M66.1565 27.4588C66.1565 24.8386 66.5501 22.5773 67.3014 20.6031C68.0886 18.6289 69.0904 17.0137 70.3785 15.6856C71.6666 14.3934 73.1335 13.3884 74.7794 12.7423C76.4252 12.0962 78.1427 11.7373 79.8601 11.7373C83.939 11.7373 87.0876 12.9936 89.3775 15.542C91.6674 18.0905 92.7765 21.8594 92.7765 26.8845C92.7765 27.2794 92.7765 27.6742 92.7408 28.1767C92.705 28.6433 92.705 29.0741 92.6692 29.4689H73.1693C73.3482 31.8379 74.2069 33.7044 75.6739 34.9966C77.1766 36.2888 79.3234 36.9348 82.15 36.9348C83.7958 36.9348 85.3344 36.7913 86.694 36.4682C88.0536 36.1811 89.1628 35.858 89.9499 35.4991L90.8444 41.0985C90.4509 41.278 89.9499 41.4934 89.3059 41.7087C88.6619 41.9241 87.9105 42.1036 87.0518 42.283C86.1931 42.4625 85.2986 42.6061 84.2968 42.7138C83.3307 42.8215 82.3289 42.8932 81.2913 42.8932C78.6794 42.8932 76.4252 42.4984 74.5289 41.7446C72.5968 40.955 71.0225 39.8782 69.7702 38.5142C68.5179 37.1502 67.5877 35.4991 67.0152 33.6326C66.4427 31.7302 66.1565 29.6843 66.1565 27.4588ZM85.9784 24.4078C85.9784 23.4746 85.8353 22.5773 85.5848 21.7158C85.3344 20.8543 84.9408 20.1365 84.4399 19.4904C83.939 18.8802 83.2949 18.3777 82.5793 18.0187C81.828 17.6598 80.9693 17.4803 79.9674 17.4803C78.9298 17.4803 77.9995 17.6957 77.2124 18.0905C76.4252 18.4853 75.7454 19.0238 75.2087 19.6339C74.672 20.28 74.2427 20.9979 73.9207 21.8594C73.6344 22.6849 73.4198 23.5464 73.3124 24.4078H85.9784Z" fill="#351044"/>
<path d="M115.067 18.6649C114.495 18.4854 113.708 18.2701 112.706 18.0547C111.704 17.8393 110.559 17.7317 109.235 17.7317C108.484 17.7317 107.697 17.8034 106.838 17.947C105.979 18.0906 105.407 18.2342 105.049 18.3419V42.0678H98.2151V13.9269C99.5389 13.4244 101.185 12.9578 103.153 12.527C105.121 12.0963 107.339 11.8809 109.736 11.8809C110.201 11.8809 110.702 11.9168 111.31 11.9527C111.919 12.0245 112.527 12.0963 113.135 12.1681C113.743 12.2758 114.316 12.3835 114.888 12.4911C115.461 12.6347 115.89 12.7424 116.248 12.8501L115.067 18.6649Z" fill="#351044"/>
<path d="M151.813 26.5615C151.813 23.4746 151.419 21.2133 150.668 19.8493C149.881 18.4853 148.45 17.7675 146.339 17.7675C145.587 17.7675 144.764 17.8393 143.87 17.9469C142.975 18.0546 142.296 18.1623 141.83 18.2341V42.1395H134.997V13.4602C136.32 13.0654 138.038 12.7064 140.149 12.3834C142.26 12.0603 144.514 11.8809 146.911 11.8809C148.951 11.8809 150.596 12.1321 151.92 12.6705C153.208 13.2089 154.318 13.8909 155.176 14.7524C155.606 14.4652 156.107 14.1422 156.751 13.7832C157.395 13.4602 158.11 13.1371 158.897 12.85C159.685 12.5628 160.543 12.3475 161.402 12.1321C162.296 11.9526 163.191 11.845 164.085 11.845C166.375 11.845 168.272 12.168 169.774 12.85C171.277 13.4961 172.422 14.4293 173.281 15.6138C174.139 16.7983 174.712 18.2341 175.034 19.9211C175.356 21.6081 175.499 23.4387 175.499 25.4488V42.1036H168.665V26.5615C168.665 23.4746 168.272 21.2133 167.52 19.8493C166.769 18.4853 165.302 17.7675 163.155 17.7675C162.046 17.7675 161.044 17.9469 160.042 18.3059C159.076 18.6648 158.325 19.0238 157.824 19.3468C158.11 20.28 158.325 21.2851 158.432 22.3619C158.54 23.4028 158.611 24.5514 158.611 25.7718V42.1395H151.777V26.5615H151.813Z" fill="#351044"/>
<path d="M125.085 12.0245H121.651V26.5615V32.3763V42.0318C121.651 42.1395 121.758 42.1754 121.83 42.1036L124.978 38.586C125.014 38.5501 125.085 38.5501 125.157 38.586L128.306 42.1036C128.377 42.1754 128.485 42.1395 128.485 42.0318V32.3763V26.5615V15.4703C128.485 13.5679 126.982 12.0245 125.085 12.0245Z" fill="#351044"/>
</svg>
