<svg xmlns:inkscape="http://www.inkscape.org/namespaces/inkscape" xmlns:sodipodi="http://sodipodi.sourceforge.net/DTD/sodipodi-0.dtd" xmlns="http://www.w3.org/2000/svg" xmlns:svg="http://www.w3.org/2000/svg" id="Layer_1" x="0px" y="0px" viewBox="-173 265 264 264" style="enable-background:new -173 265 264 264;" xml:space="preserve" sodipodi:docname="01._noedit.svg" inkscape:version="1.2.1 (9c6d41e410, 2022-07-14)"><defs id="defs55"></defs><style type="text/css" id="style2">	.st0{fill:#351044;}	.st1{fill:#902A47;}</style><g id="g8">	<path class="st0" d="M-114.8,379h-0.1h-13.1h-0.1c-15.3,0-27.8,12.6-27.8,28.1V475h1.8v-67.9c0-14.5,11.6-26.3,25.9-26.3h0.1v52.6   l6.6,19.5l6.5-19.2l0.1-52.9h0.1c14.3,0,25.9,11.8,25.9,26.3V475h1.8v-67.9C-87,391.6-99.5,379-114.8,379z M-116.8,433.3l-4.7,14.1   l-4.7-14.1v-52.5h9.5V433.3z" id="path4"></path>	<path class="st0" d="M-86.3,475.8h-3.3v-68.6c0-13.9-11-25.2-24.6-25.5l-0.1,52.3l-7.3,21.4l-7.3-21.9v-51.9   c-13.6,0.3-24.6,11.7-24.6,25.5v68.6h-3.3v-68.6c0-15.9,12.8-28.9,28.5-28.9h13.4c15.7,0,28.5,13,28.5,28.9V475.8z M-88.1,474.3   h0.3v-67.1c0-15.1-12.1-27.4-27-27.4h-13.4c-14.9,0-27,12.3-27,27.4v67.1h0.3v-67.1c0-14.9,12-27,26.7-27h0.9v53.2l5.8,17.3l5.8-17   l0.1-53.5h0.9c14.7,0,26.7,12.1,26.7,27V474.3z M-121.5,449.8l-5.5-16.5v-53.2h11l0,53.4L-121.5,449.8z M-125.5,433.2l4,11.9   l4-11.9v-51.6h-8V433.2z" id="path6"></path></g><g id="g14">	<path class="st1" d="M47.2,379h-0.1H33.9h-0.1C18.5,379,6,391.6,6,407.1V475h1.8v-67.9c0-14.5,11.6-26.3,25.9-26.3h0.1v52.6   l6.6,19.7l6.5-19.4l0.1-52.9h0.1c14.3,0,25.9,11.8,25.9,26.3V475H75v-67.9C75,391.6,62.5,379,47.2,379z M45.2,433.3l-4.7,14.1   l-4.7-14.1v-52.5h9.5V433.3z" id="path10"></path>	<path class="st1" d="M75.8,475.8h-3.3v-68.6c0-13.9-11-25.2-24.6-25.5l0,52.3l0,0.1l-7.2,21.6l-7.3-22.1v-51.9   C19.6,382,8.6,393.3,8.6,407.2v68.6H5.3v-68.6c0-15.9,12.8-28.9,28.5-28.9h13.4c15.7,0,28.5,13,28.5,28.9V475.8z M73.9,474.3h0.3   v-67.1c0-15.1-12.1-27.4-27-27.4H33.8c-14.9,0-27,12.3-27,27.4v67.1h0.3v-67.1c0-14.9,12-27,26.7-27h0.9v53.2l5.8,17.5l5.8-17.2   l0.1-53.5h0.9c14.7,0,26.7,12.1,26.7,27V474.3z M40.5,449.8L35,433.3v-53.2h11l0,53.4L40.5,449.8z M36.5,433.2l4,11.9l4-11.9v-51.6   h-8V433.2z" id="path12"></path></g><g id="g20">	<path class="st0" d="M-121,375c16,0,29-12.6,29-28c0-15.4-13-28-29-28c-16,0-29,12.6-29,28C-150,362.4-137,375-121,375z    M-121,320.8c15,0,27.1,11.8,27.1,26.2s-12.2,26.2-27.1,26.2s-27.1-11.8-27.1-26.2S-136,320.8-121,320.8z" id="path16"></path>	<path class="st0" d="M-121,375.8c-16.4,0-29.8-12.9-29.8-28.8s13.3-28.8,29.8-28.8s29.8,12.9,29.8,28.8S-104.6,375.8-121,375.8z    M-121,319.8c-15.6,0-28.3,12.2-28.3,27.3s12.7,27.3,28.3,27.3S-92.8,362-92.8,347S-105.4,319.8-121,319.8z M-121,373.9   c-15.4,0-27.9-12.1-27.9-26.9s12.5-26.9,27.9-26.9s27.9,12.1,27.9,26.9S-105.6,373.9-121,373.9z M-121,321.6   c-14.5,0-26.4,11.4-26.4,25.4s11.8,25.4,26.4,25.4S-94.6,361-94.6,347S-106.5,321.6-121,321.6z" id="path18"></path></g><g id="g26">	<path class="st1" d="M40.5,375c16.3,0,29.5-12.6,29.5-28c0-15.4-13.2-28-29.5-28S11,331.6,11,347C11,362.4,24.2,375,40.5,375z    M40.5,320.8c15.2,0,27.6,11.8,27.6,26.2s-12.4,26.2-27.6,26.2S12.9,361.4,12.9,347S25.3,320.8,40.5,320.8z" id="path22"></path>	<path class="st1" d="M40.5,375.8c-16.7,0-30.3-12.9-30.3-28.8s13.6-28.8,30.3-28.8s30.3,12.9,30.3,28.8S57.2,375.8,40.5,375.8z    M40.5,319.8c-15.9,0-28.8,12.2-28.8,27.3s12.9,27.3,28.8,27.3S69.3,362,69.3,347S56.4,319.8,40.5,319.8z M40.5,373.9   c-15.6,0-28.4-12.1-28.4-26.9s12.7-26.9,28.4-26.9s28.4,12.1,28.4,26.9S56.1,373.9,40.5,373.9z M40.5,321.6   c-14.8,0-26.9,11.4-26.9,25.4s12,25.4,26.9,25.4S67.4,361,67.4,347S55.3,321.6,40.5,321.6z" id="path24"></path></g><g id="g32">	<path class="st0" d="M-94,420h-12v2h12V420z" id="path28"></path>	<path class="st0" d="M-93.3,422.8h-13.5v-3.5h13.5V422.8z M-105.3,421.3h10.5v-0.5h-10.5V421.3z" id="path30"></path></g><g id="g38">	<path class="st1" d="M68,420H55v2h13V420z" id="path34"></path>	<path class="st1" d="M68.8,422.8H54.3v-3.5h14.5V422.8z M55.8,421.3h11.5v-0.5H55.8V421.3z" id="path36"></path></g><g id="g44">	<path class="st0" d="M-37.3,403.2H-66v6.6h28.7v7.2l23.3-10.5L-37.3,396V403.2z M-35.9,398.2l18.5,8.3l-18.5,8.3v-6.5h-28.7v-3.8   h28.7V398.2z" id="path40"></path>	<path class="st0" d="M-37.8,417.8v-7.5h-28.7v-7.6h28.7v-7.5l25,11.3L-37.8,417.8z M-65.5,409.3h28.7v6.9l21.6-9.7l-21.6-9.7v6.9   h-28.7V409.3z M-36.4,415.6v-6.7h-28.7v-4.8h28.7v-6.7l20.2,9.1L-36.4,415.6z M-64.1,407.9h28.7v6.2l16.8-7.6l-16.8-7.6v6.2h-28.7   V407.9z" id="path42"></path></g><g id="g50">	<path class="st1" d="M-43.7,423L-67,433.5l23.3,10.5v-7.2H-15v-6.6h-28.7V423z M-16.4,431.6v3.8h-28.7v6.4l-18.5-8.3l18.5-8.3v6.5   L-16.4,431.6L-16.4,431.6z" id="path46"></path>	<path class="st1" d="M-43.2,444.8l-25-11.3l25-11.3v7.5h28.7v7.6h-28.7V444.8z M-65.8,433.5l21.6,9.7v-6.9h28.7v-5.6h-28.7v-7   L-65.8,433.5z M-44.6,442.6l-20.2-9.1l20.2-9.1v6.7h28.2v0.5l0.5,0v4.3h-28.7V442.6z M-62.4,433.5l16.7,7.6v-6.2h28.7v-2.8h-28.7   v-6.2L-62.4,433.5z" id="path48"></path></g><path style="fill:#902a47;fill-opacity:1;stroke-width:0.5" d="m 205.93102,109.50928 c -9.97749,-2.61574 -17.72382,-9.628426 -21.01044,-19.020565 -1.85037,-5.28778 -1.85037,-11.68965 0,-16.97743 3.35327,-9.582589 10.97717,-16.427565 21.21264,-19.045356 12.01454,-3.072803 25.44914,1.858424 32.27341,11.8461 6.7361,9.858619 6.75536,21.489138 0.0518,31.300089 -6.87278,10.058662 -20.51179,15.047242 -32.52744,11.897162 z m 14.57167,-2.78099 c 13.23212,-3.44653 21.76084,-15.590447 19.80677,-28.202543 -1.43777,-9.279649 -7.58847,-16.710836 -16.87075,-20.382983 -3.12026,-1.234401 -4.04065,-1.360381 -9.93871,-1.360381 -5.89806,0 -6.81845,0.12598 -9.93871,1.360381 -9.28228,3.672147 -15.43298,11.103334 -16.87074,20.382983 -1.93246,12.472541 6.60585,24.776083 19.55945,28.184783 3.66262,0.96382 10.58743,0.97244 14.25269,0.0178 z" id="path577" transform="translate(-173,265)"></path><path style="fill:#902a47;fill-opacity:1;stroke-width:0.5" d="m 178.75,174.35505 c 0,-30.67622 0.11483,-36.59583 0.75895,-39.125 2.63492,-10.34604 11.39294,-18.83025 21.69144,-21.01326 4.4602,-0.94544 20.13902,-0.94544 24.59922,0 10.29849,2.18301 19.05652,10.66722 21.69143,21.01326 0.64413,2.52917 0.75896,8.44878 0.75896,39.125 V 210.5 H 247 245.75 v -35.47539 c 0,-23.79741 -0.18056,-36.3476 -0.54849,-38.125 -1.44955,-7.00243 -6.62874,-14.01447 -12.74774,-17.25901 -3.18715,-1.68996 -7.94878,-3.1406 -10.30882,-3.1406 H 220.75 v 26.11191 26.11192 l -3.36586,10.13808 C 215.53291,184.43786 213.89755,189 213.75,189 c -0.14755,0 -1.78291,-4.56214 -3.63414,-10.13809 L 206.75,168.72383 V 142.61191 116.5 l -1.375,0.007 c -2.70035,0.0145 -7.90362,1.56236 -10.917,3.24754 -3.80823,2.12968 -8.66137,7.24309 -10.43725,10.99701 -2.70081,5.70904 -2.75266,6.54663 -2.76207,44.62306 L 181.25,210.5 H 180 178.75 Z m 37.00923,-0.13253 1.99077,-5.92568 V 142.39842 116.5 h -4.25 -4.25 v 25.87426 25.87427 l 2.05189,6.15718 c 1.12854,3.38644 2.14519,6.06387 2.25923,5.94983 0.11404,-0.11403 1.10319,-2.87389 2.19811,-6.13302 z" id="path579" transform="translate(-173,265)"></path><path style="fill:#902a47;fill-opacity:1;stroke-width:0.5" d="m 178.75,174.35505 c 0,-39.73909 -0.0605,-38.85494 3.1019,-45.35145 2.15517,-4.42737 7.96481,-10.1927 12.50467,-12.40928 5.06029,-2.47067 8.8323,-3.07696 19.14343,-3.07696 10.31113,0 14.08314,0.60629 19.14343,3.07696 4.53986,2.21658 10.3495,7.98191 12.50466,12.40928 3.16238,6.49651 3.10191,5.61236 3.10191,45.35145 V 210.5 h -1.2317 -1.2317 l -0.1433,-36.875 c -0.14319,-36.84664 -0.14417,-36.87729 -1.26752,-39.85543 -2.28282,-6.05205 -6.84145,-11.41271 -12.07925,-14.20443 C 229.25289,117.9429 224.47409,116.5 222.14495,116.5 H 220.75 v 26.11191 26.11192 l -3.36586,10.13808 C 215.53291,184.43786 213.89755,189 213.75,189 c -0.14755,0 -1.78291,-4.56214 -3.63414,-10.13809 L 206.75,168.72383 v -26.18076 -26.18075 l -2.78744,0.32761 c -11.17991,1.31398 -20.60719,10.47266 -22.19236,21.56007 -0.29422,2.05792 -0.50447,17.66327 -0.5103,37.875 L 181.25,210.5 H 180 178.75 Z m 37.18772,-0.60599 1.81228,-5.50093 V 142.37406 116.5 h -4.25 -4.25 v 25.90176 25.90175 l 1.75185,5.22325 c 2.34625,6.99547 2.22004,6.70674 2.70226,6.18185 0.23173,-0.25224 1.23685,-2.93403 2.23361,-5.95955 z" id="path581" transform="translate(-173,265)"></path></svg>
