<svg version="1.1" id="Layer_1" xmlns="http://www.w3.org/2000/svg" xmlns:xlink="http://www.w3.org/1999/xlink" x="0px" y="0px" viewBox="-173 265 264 264" style="enable-background:new -173 265 264 264;" xml:space="preserve">
<style type="text/css">
	.st0{fill:#351044;}
	.st1{fill:#FFFFFF;}
	.st2{fill:#902A47;}
</style>
    <g>
	<path class="st0" d="M-40.8,475c-42.9,0-77.7-34.9-77.7-77.7c0-42.9,34.9-77.7,77.7-77.7c42.9,0,77.7,34.9,77.7,77.7
		C37,440.1,2.1,475-40.8,475z M-40.8,323.7c-40.5,0-73.5,33-73.5,73.5c0,40.5,33,73.5,73.5,73.5c40.5,0,73.5-33,73.5-73.5
		C32.7,356.7-0.2,323.7-40.8,323.7z"></path>
        <path class="st1" d="M-40.8,475.5c-43.1,0-78.2-35.1-78.2-78.2S-83.9,319-40.8,319c43.1,0,78.2,35.1,78.2,78.2
		S2.4,475.5-40.8,475.5z M-40.8,320c-42.6,0-77.2,34.6-77.2,77.2c0,42.6,34.6,77.2,77.2,77.2c42.6,0,77.2-34.6,77.2-77.2
		C36.5,354.7,1.8,320-40.8,320z M-40.8,471.2c-40.8,0-74-33.2-74-74c0-40.8,33.2-74,74-74c40.8,0,74,33.2,74,74
		C33.2,438,0,471.2-40.8,471.2z M-40.8,324.2c-40.3,0-73,32.8-73,73s32.8,73,73,73c40.3,0,73-32.8,73-73S-0.5,324.2-40.8,324.2z"></path>
</g>
    <g>
	<path class="st0" d="M-40.8,457.3c-33.1,0-60.1-27-60.1-60.1s27-60.1,60.1-60.1c33.1,0,60.1,27,60.1,60.1S-7.6,457.3-40.8,457.3z
		 M-40.8,341.9c-30.5,0-55.4,24.8-55.4,55.4c0,30.5,24.8,55.4,55.4,55.4c30.5,0,55.4-24.8,55.4-55.4
		C14.6,366.7-10.2,341.9-40.8,341.9z"></path>
        <path class="st1" d="M-40.8,457.6c-33.3,0-60.3-27.1-60.3-60.3c0-33.3,27.1-60.3,60.3-60.3c33.3,0,60.3,27.1,60.3,60.3
		C19.6,430.5-7.5,457.6-40.8,457.6z M-40.8,337.4c-33,0-59.8,26.8-59.8,59.8s26.8,59.8,59.8,59.8c33,0,59.8-26.8,59.8-59.8
		S-7.8,337.4-40.8,337.4z M-40.8,452.8c-30.7,0-55.6-24.9-55.6-55.6c0-30.7,24.9-55.6,55.6-55.6c30.7,0,55.6,24.9,55.6,55.6
		C14.8,427.9-10.1,452.8-40.8,452.8z M-40.8,342.1c-30.4,0-55.1,24.7-55.1,55.1c0,30.4,24.7,55.1,55.1,55.1
		c30.4,0,55.1-24.7,55.1-55.1C14.3,366.9-10.4,342.1-40.8,342.1z"></path>
</g>
    <g>
	<path class="st0" d="M-40.8,326.6c-1.3,0-2.4-1.1-2.4-2.4v-10.6c0-1.3,1.1-2.4,2.4-2.4c1.3,0,2.4,1.1,2.4,2.4v10.6
		C-38.4,325.5-39.5,326.6-40.8,326.6z"></path>
        <path class="st1" d="M-40.8,326.9c-1.4,0-2.6-1.2-2.6-2.6v-10.6c0-1.4,1.2-2.6,2.6-2.6c1.4,0,2.6,1.2,2.6,2.6v10.6
		C-38.1,325.7-39.3,326.9-40.8,326.9z M-40.8,311.5c-1.2,0-2.1,0.9-2.1,2.1v10.6c0,1.2,0.9,2.1,2.1,2.1c1.2,0,2.1-0.9,2.1-2.1v-10.6
		C-38.6,312.4-39.6,311.5-40.8,311.5z"></path>
</g>
    <g>
	<path class="st0" d="M-40.8,347c-1.3,0-2.4-1.1-2.4-2.4v-10.6c0-1.3,1.1-2.4,2.4-2.4c1.3,0,2.4,1.1,2.4,2.4v10.6
		C-38.4,346-39.5,347-40.8,347z"></path>
        <path class="st1" d="M-40.8,347.3c-1.4,0-2.6-1.2-2.6-2.6v-10.6c0-1.4,1.2-2.6,2.6-2.6c1.4,0,2.6,1.2,2.6,2.6v10.6
		C-38.1,346.1-39.3,347.3-40.8,347.3z M-40.8,331.9c-1.2,0-2.1,0.9-2.1,2.1v10.6c0,1.2,0.9,2.1,2.1,2.1c1.2,0,2.1-0.9,2.1-2.1v-10.6
		C-38.6,332.9-39.6,331.9-40.8,331.9z"></path>
</g>
    <g>
	<path class="st0" d="M-40.8,367.5c-1.3,0-2.4-1.1-2.4-2.4v-10.6c0-1.3,1.1-2.4,2.4-2.4c1.3,0,2.4,1.1,2.4,2.4v10.6
		C-38.4,366.4-39.5,367.5-40.8,367.5z"></path>
        <path class="st1" d="M-40.8,367.7c-1.4,0-2.6-1.2-2.6-2.6v-10.6c0-1.4,1.2-2.6,2.6-2.6c1.4,0,2.6,1.2,2.6,2.6v10.6
		C-38.1,366.6-39.3,367.7-40.8,367.7z M-40.8,352.4c-1.2,0-2.1,0.9-2.1,2.1v10.6c0,1.2,0.9,2.1,2.1,2.1c1.2,0,2.1-0.9,2.1-2.1v-10.6
		C-38.6,353.3-39.6,352.4-40.8,352.4z"></path>
</g>
    <g>
	<path class="st0" d="M-40.8,387.9c-1.3,0-2.4-1.1-2.4-2.4v-10.6c0-1.3,1.1-2.4,2.4-2.4c1.3,0,2.4,1.1,2.4,2.4v10.6
		C-38.4,386.9-39.5,387.9-40.8,387.9z"></path>
        <path class="st1" d="M-40.8,388.2c-1.4,0-2.6-1.2-2.6-2.6v-10.6c0-1.4,1.2-2.6,2.6-2.6c1.4,0,2.6,1.2,2.6,2.6v10.6
		C-38.1,387-39.3,388.2-40.8,388.2z M-40.8,372.8c-1.2,0-2.1,0.9-2.1,2.1v10.6c0,1.2,0.9,2.1,2.1,2.1c1.2,0,2.1-0.9,2.1-2.1v-10.6
		C-38.6,373.8-39.6,372.8-40.8,372.8z"></path>
</g>
    <g>
	<path class="st0" d="M-40.8,421.9c-1.3,0-2.4-1.1-2.4-2.4v-10.6c0-1.3,1.1-2.4,2.4-2.4c1.3,0,2.4,1.1,2.4,2.4v10.6
		C-38.4,420.9-39.5,421.9-40.8,421.9z"></path>
        <path class="st1" d="M-40.8,422.2c-1.4,0-2.6-1.2-2.6-2.6v-10.6c0-1.4,1.2-2.6,2.6-2.6c1.4,0,2.6,1.2,2.6,2.6v10.6
		C-38.1,421-39.3,422.2-40.8,422.2z M-40.8,406.8c-1.2,0-2.1,0.9-2.1,2.1v10.6c0,1.2,0.9,2.1,2.1,2.1c1.2,0,2.1-0.9,2.1-2.1v-10.6
		C-38.6,407.8-39.6,406.8-40.8,406.8z"></path>
</g>
    <g>
	<path class="st0" d="M-40.8,442.4c-1.3,0-2.4-1.1-2.4-2.4v-10.6c0-1.3,1.1-2.4,2.4-2.4c1.3,0,2.4,1.1,2.4,2.4V440
		C-38.4,441.3-39.5,442.4-40.8,442.4z"></path>
        <path class="st1" d="M-40.8,442.6c-1.4,0-2.6-1.2-2.6-2.6v-10.6c0-1.4,1.2-2.6,2.6-2.6c1.4,0,2.6,1.2,2.6,2.6V440
		C-38.1,441.4-39.3,442.6-40.8,442.6z M-40.8,427.2c-1.2,0-2.1,0.9-2.1,2.1V440c0,1.2,0.9,2.1,2.1,2.1c1.2,0,2.1-0.9,2.1-2.1v-10.6
		C-38.6,428.2-39.6,427.2-40.8,427.2z"></path>
</g>
    <g>
	<path class="st0" d="M-40.8,462.8c-1.3,0-2.4-1.1-2.4-2.4v-10.6c0-1.3,1.1-2.4,2.4-2.4c1.3,0,2.4,1.1,2.4,2.4v10.6
		C-38.4,461.7-39.5,462.8-40.8,462.8z"></path>
        <path class="st1" d="M-40.8,463c-1.4,0-2.6-1.2-2.6-2.6v-10.6c0-1.4,1.2-2.6,2.6-2.6c1.4,0,2.6,1.2,2.6,2.6v10.6
		C-38.1,461.9-39.3,463-40.8,463z M-40.8,447.7c-1.2,0-2.1,0.9-2.1,2.1v10.6c0,1.2,0.9,2.1,2.1,2.1c1.2,0,2.1-0.9,2.1-2.1v-10.6
		C-38.6,448.6-39.6,447.7-40.8,447.7z"></path>
</g>
    <g>
	<path class="st0" d="M-40.8,483.2c-1.3,0-2.4-1.1-2.4-2.4v-10.6c0-1.3,1.1-2.4,2.4-2.4c1.3,0,2.4,1.1,2.4,2.4v10.6
		C-38.4,482.2-39.5,483.2-40.8,483.2z"></path>
        <path class="st1" d="M-40.8,483.5c-1.4,0-2.6-1.2-2.6-2.6v-10.6c0-1.4,1.2-2.6,2.6-2.6c1.4,0,2.6,1.2,2.6,2.6v10.6
		C-38.1,482.3-39.3,483.5-40.8,483.5z M-40.8,468.1c-1.2,0-2.1,0.9-2.1,2.1v10.6c0,1.2,0.9,2.1,2.1,2.1c1.2,0,2.1-0.9,2.1-2.1v-10.6
		C-38.6,469.1-39.6,468.1-40.8,468.1z"></path>
</g>
    <g>
	<path class="st0" d="M42.9,399.6H32.2c-1.3,0-2.4-1.1-2.4-2.4s1.1-2.4,2.4-2.4h10.6c1.3,0,2.4,1.1,2.4,2.4S44.2,399.6,42.9,399.6z"></path>
        <path class="st1" d="M42.9,399.9H32.2c-1.4,0-2.6-1.2-2.6-2.6c0-1.4,1.2-2.6,2.6-2.6h10.6c1.4,0,2.6,1.2,2.6,2.6
		C45.5,398.7,44.3,399.9,42.9,399.9z M32.2,395.1c-1.2,0-2.1,0.9-2.1,2.1s0.9,2.1,2.1,2.1h10.6c1.2,0,2.1-0.9,2.1-2.1
		s-0.9-2.1-2.1-2.1H32.2z"></path>
</g>
    <g>
	<path class="st0" d="M22.4,399.6H11.8c-1.3,0-2.4-1.1-2.4-2.4s1.1-2.4,2.4-2.4h10.6c1.3,0,2.4,1.1,2.4,2.4S23.7,399.6,22.4,399.6z"></path>
        <path class="st1" d="M22.4,399.9H11.8c-1.4,0-2.6-1.2-2.6-2.6c0-1.4,1.2-2.6,2.6-2.6h10.6c1.4,0,2.6,1.2,2.6,2.6
		C25,398.7,23.9,399.9,22.4,399.9z M11.8,395.1c-1.2,0-2.1,0.9-2.1,2.1s0.9,2.1,2.1,2.1h10.6c1.2,0,2.1-0.9,2.1-2.1
		s-0.9-2.1-2.1-2.1H11.8z"></path>
</g>
    <g>
	<path class="st0" d="M2,399.6H-8.6c-1.3,0-2.4-1.1-2.4-2.4s1.1-2.4,2.4-2.4H2c1.3,0,2.4,1.1,2.4,2.4S3.3,399.6,2,399.6z"></path>
        <path class="st1" d="M2,399.9H-8.6c-1.4,0-2.6-1.2-2.6-2.6c0-1.4,1.2-2.6,2.6-2.6H2c1.4,0,2.6,1.2,2.6,2.6
		C4.6,398.7,3.4,399.9,2,399.9z M-8.6,395.1c-1.2,0-2.1,0.9-2.1,2.1s0.9,2.1,2.1,2.1H2c1.2,0,2.1-0.9,2.1-2.1s-0.9-2.1-2.1-2.1H-8.6
		z"></path>
</g>
    <g>
	<path class="st0" d="M-18.4,399.6h-10.6c-1.3,0-2.4-1.1-2.4-2.4s1.1-2.4,2.4-2.4h10.6c1.3,0,2.4,1.1,2.4,2.4
		S-17.1,399.6-18.4,399.6z"></path>
        <path class="st1" d="M-18.5,399.9h-10.6c-1.4,0-2.6-1.2-2.6-2.6c0-1.4,1.2-2.6,2.6-2.6h10.6c1.4,0,2.6,1.2,2.6,2.6
		C-15.8,398.7-17,399.9-18.5,399.9z M-29.1,395.1c-1.2,0-2.1,0.9-2.1,2.1s0.9,2.1,2.1,2.1h10.6c1.2,0,2.1-0.9,2.1-2.1
		s-0.9-2.1-2.1-2.1H-29.1z"></path>
</g>
    <g>
	<path class="st0" d="M-52.4,399.6h-10.6c-1.3,0-2.4-1.1-2.4-2.4s1.1-2.4,2.4-2.4h10.6c1.3,0,2.4,1.1,2.4,2.4
		S-51.1,399.6-52.4,399.6z"></path>
        <path class="st1" d="M-52.4,399.9h-10.6c-1.4,0-2.6-1.2-2.6-2.6c0-1.4,1.2-2.6,2.6-2.6h10.6c1.4,0,2.6,1.2,2.6,2.6
		C-49.8,398.7-51,399.9-52.4,399.9z M-63.1,395.1c-1.2,0-2.1,0.9-2.1,2.1s0.9,2.1,2.1,2.1h10.6c1.2,0,2.1-0.9,2.1-2.1
		s-0.9-2.1-2.1-2.1H-63.1z"></path>
</g>
    <g>
	<path class="st0" d="M-72.9,399.6h-10.6c-1.3,0-2.4-1.1-2.4-2.4s1.1-2.4,2.4-2.4h10.6c1.3,0,2.4,1.1,2.4,2.4
		S-71.6,399.6-72.9,399.6z"></path>
        <path class="st1" d="M-72.9,399.9h-10.6c-1.4,0-2.6-1.2-2.6-2.6c0-1.4,1.2-2.6,2.6-2.6h10.6c1.4,0,2.6,1.2,2.6,2.6
		C-70.3,398.7-71.4,399.9-72.9,399.9z M-83.5,395.1c-1.2,0-2.1,0.9-2.1,2.1s0.9,2.1,2.1,2.1h10.6c1.2,0,2.1-0.9,2.1-2.1
		s-0.9-2.1-2.1-2.1H-83.5z"></path>
</g>
    <g>
	<path class="st0" d="M-93.3,399.6h-10.6c-1.3,0-2.4-1.1-2.4-2.4s1.1-2.4,2.4-2.4h10.6c1.3,0,2.4,1.1,2.4,2.4S-92,399.6-93.3,399.6z
		"></path>
        <path class="st1" d="M-93.3,399.9h-10.6c-1.4,0-2.6-1.2-2.6-2.6c0-1.4,1.2-2.6,2.6-2.6h10.6c1.4,0,2.6,1.2,2.6,2.6
		C-90.7,398.7-91.9,399.9-93.3,399.9z M-103.9,395.1c-1.2,0-2.1,0.9-2.1,2.1s0.9,2.1,2.1,2.1h10.6c1.2,0,2.1-0.9,2.1-2.1
		s-0.9-2.1-2.1-2.1H-103.9z"></path>
</g>
    <g>
	<path class="st0" d="M-113.8,399.6h-10.6c-1.3,0-2.4-1.1-2.4-2.4s1.1-2.4,2.4-2.4h10.6c1.3,0,2.4,1.1,2.4,2.4
		S-112.5,399.6-113.8,399.6z"></path>
        <path class="st1" d="M-113.8,399.9h-10.6c-1.4,0-2.6-1.2-2.6-2.6c0-1.4,1.2-2.6,2.6-2.6h10.6c1.4,0,2.6,1.2,2.6,2.6
		C-111.1,398.7-112.3,399.9-113.8,399.9z M-124.4,395.1c-1.2,0-2.1,0.9-2.1,2.1s0.9,2.1,2.1,2.1h10.6c1.2,0,2.1-0.9,2.1-2.1
		s-0.9-2.1-2.1-2.1H-124.4z"></path>
</g>
    <path class="st2" d="M42.9,334.5c-1.4,0-2.6-1.2-2.6-2.6v-15.7H24.6c-1.4,0-2.6-1.2-2.6-2.6c0-1.4,1.2-2.6,2.6-2.6h18.3
	c1.4,0,2.6,1.2,2.6,2.6v18.3C45.5,333.3,44.3,334.5,42.9,334.5z"></path>
    <path class="st2" d="M42.9,483.5H24.6c-1.4,0-2.6-1.2-2.6-2.6c0-1.4,1.2-2.6,2.6-2.6h15.7v-15.7c0-1.4,1.2-2.6,2.6-2.6
	c1.4,0,2.6,1.2,2.6,2.6v18.3C45.5,482.3,44.3,483.5,42.9,483.5z"></path>
    <path class="st2" d="M-124.4,334.5c-1.4,0-2.6-1.2-2.6-2.6v-18.3c0-1.4,1.2-2.6,2.6-2.6h18.3c1.4,0,2.6,1.2,2.6,2.6
	c0,1.4-1.2,2.6-2.6,2.6h-15.7v15.7C-121.8,333.3-122.9,334.5-124.4,334.5z"></path>
    <path class="st2" d="M-106.1,483.5h-18.3c-1.4,0-2.6-1.2-2.6-2.6v-18.3c0-1.4,1.2-2.6,2.6-2.6c1.4,0,2.6,1.2,2.6,2.6v15.7h15.7
	c1.4,0,2.6,1.2,2.6,2.6C-103.5,482.3-104.7,483.5-106.1,483.5z"></path>
    <path class="st2" d="M-40.8,411c-7.6,0-13.8-6.2-13.8-13.8s6.2-13.8,13.8-13.8c7.6,0,13.8,6.2,13.8,13.8S-33.1,411-40.8,411z
	 M-40.8,388.7c-4.7,0-8.6,3.8-8.6,8.6c0,4.7,3.8,8.6,8.6,8.6c4.7,0,8.6-3.8,8.6-8.6C-32.2,392.5-36,388.7-40.8,388.7z"></path>
</svg>
