<svg version="1.1" id="Layer_1" xmlns="http://www.w3.org/2000/svg" xmlns:xlink="http://www.w3.org/1999/xlink" x="0px" y="0px" viewBox="-173 265 264 264" style="enable-background:new -173 265 264 264;" xml:space="preserve">
<style type="text/css">
	.st0{fill:#351044;}
	.st1{fill:#FFFFFF;}
	.st2{fill:#902A47;}
</style>
    <g>
	<path class="st0" d="M-125.8,363.5h-0.3v0.3v113.6c0,1.4,0.6,2.8,1.6,3.8c1,1,2.4,1.6,3.8,1.6H39.4c1.4,0,2.8-0.6,3.8-1.6
		s1.6-2.4,1.6-3.8V363.8v-0.3h-0.3H-125.8z M39.4,487.5h-160.1c-2.7,0-5.2-1.1-7.1-3c-1.9-1.9-3-4.5-3-7.1V361.2
		c0-0.6,0.2-1.2,0.7-1.6c0.4-0.4,1-0.7,1.6-0.7H47.1c0.6,0,1.2,0.2,1.6,0.7c0.4,0.4,0.7,1,0.7,1.6v116.2c0,2.7-1.1,5.2-3,7.1
		C44.6,486.4,42.1,487.5,39.4,487.5z"></path>
        <path class="st1" d="M39.4,487.7h-160.1c-2.8,0-5.4-1.1-7.3-3c-2-2-3-4.5-3-7.3V361.2c0-0.7,0.3-1.3,0.8-1.8
		c0.5-0.5,1.1-0.8,1.8-0.8H47.1c0.7,0,1.3,0.3,1.8,0.8c0.5,0.5,0.8,1.1,0.8,1.8v116.2c0,2.8-1.1,5.4-3,7.3
		C44.7,486.6,42.1,487.7,39.4,487.7z M-128.4,359.1c-0.5,0-1.1,0.2-1.5,0.6c-0.4,0.4-0.6,0.9-0.6,1.5v116.2c0,2.6,1,5.1,2.9,6.9
		c1.9,1.9,4.3,2.9,6.9,2.9H39.4c2.6,0,5.1-1,6.9-2.9c1.9-1.9,2.9-4.3,2.9-6.9V361.2c0-0.6-0.2-1.1-0.6-1.5c-0.4-0.4-0.9-0.6-1.5-0.6
		H-128.4z M39.4,483h-160.1c-1.5,0-2.9-0.6-4-1.7s-1.7-2.5-1.7-4V363.3H45v114.1c0,1.5-0.6,2.9-1.7,4S40.9,483,39.4,483z
		 M-125.8,363.8v113.6c0,1.4,0.5,2.7,1.5,3.7s2.3,1.5,3.7,1.5H39.4c1.4,0,2.7-0.5,3.7-1.5s1.5-2.3,1.5-3.7V363.8H-125.8z"></path>
</g>
    <g>
	<path class="st0" d="M-126.1,358.6v0.3h0.3H44.5h0.3v-0.3v-25.8c0-1.4-0.6-2.8-1.6-3.8c-1-1-2.4-1.6-3.8-1.6H16.1
		c-0.6,0-1.2-0.2-1.6-0.7c-0.4-0.4-0.7-1-0.7-1.6c0-0.6,0.2-1.2,0.7-1.6c0.4-0.4,1-0.7,1.6-0.7h23.2c2.7,0,5.2,1.1,7.1,3
		c1.9,1.9,3,4.5,3,7.1v28.4c0,0.6-0.2,1.2-0.7,1.6c-0.4,0.4-1,0.7-1.6,0.7h-175.5c-0.6,0-1.2-0.2-1.6-0.7c-0.4-0.4-0.7-1-0.7-1.6
		v-28.4c0-2.7,1.1-5.2,3-7.1c1.9-1.9,4.5-3,7.1-3h23.2c0.6,0,1.2,0.2,1.6,0.7c0.4,0.4,0.7,1,0.7,1.6c0,0.6-0.2,1.2-0.7,1.6
		c-0.4,0.4-1,0.7-1.6,0.7h-23.2c-1.4,0-2.8,0.6-3.8,1.6c-1,1-1.6,2.4-1.6,3.8V358.6z"></path>
        <path class="st1" d="M47.1,363.8h-175.5c-0.7,0-1.3-0.3-1.8-0.8c-0.5-0.5-0.8-1.1-0.8-1.8v-28.4c0-2.8,1.1-5.4,3-7.3
		c2-2,4.5-3,7.3-3h23.2c0.7,0,1.3,0.3,1.8,0.8c0.5,0.5,0.8,1.1,0.8,1.8c0,0.7-0.3,1.3-0.8,1.8c-0.5,0.5-1.1,0.8-1.8,0.8h-23.2
		c-1.4,0-2.7,0.5-3.7,1.5c-1,1-1.5,2.3-1.5,3.7v25.8H44.5v-25.8c0-1.4-0.5-2.7-1.5-3.7c-1-1-2.3-1.5-3.7-1.5H16.1
		c-0.7,0-1.3-0.3-1.8-0.8c-0.5-0.5-0.8-1.1-0.8-1.8c0-0.7,0.3-1.3,0.8-1.8c0.5-0.5,1.1-0.8,1.8-0.8h23.2c2.8,0,5.4,1.1,7.3,3
		c2,1.9,3,4.5,3,7.3v28.4c0,0.7-0.3,1.3-0.8,1.8C48.5,363.5,47.8,363.8,47.1,363.8z M-120.7,323c-2.6,0-5.1,1-6.9,2.9
		s-2.9,4.3-2.9,6.9v28.4c0,0.6,0.2,1.1,0.6,1.5c0.4,0.4,0.9,0.6,1.5,0.6H47.1c0.6,0,1.1-0.2,1.5-0.6c0.4-0.4,0.6-0.9,0.6-1.5v-28.4
		c0-2.6-1-5.1-2.9-6.9c-1.9-1.9-4.3-2.9-6.9-2.9H16.1c-0.6,0-1.1,0.2-1.5,0.6c-0.4,0.4-0.6,0.9-0.6,1.5c0,0.6,0.2,1.1,0.6,1.5
		c0.4,0.4,0.9,0.6,1.5,0.6h23.2c1.5,0,2.9,0.6,4,1.7c1.1,1.1,1.7,2.5,1.7,4v26.3h-171.4v-26.3c0-1.5,0.6-2.9,1.7-4
		c1.1-1.1,2.5-1.7,4-1.7h23.2c0.6,0,1.1-0.2,1.5-0.6c0.4-0.4,0.6-0.9,0.6-1.5c0-0.5-0.2-1.1-0.6-1.5c-0.4-0.4-0.9-0.6-1.5-0.6
		H-120.7z"></path>
</g>
    <g>
	<path class="st0" d="M0.7,327.4H-82c-0.6,0-1.2-0.2-1.6-0.7c-0.4-0.4-0.7-1-0.7-1.6c0-0.6,0.2-1.2,0.7-1.6c0.4-0.4,1-0.7,1.6-0.7
		H0.7c0.6,0,1.2,0.2,1.6,0.7c0.4,0.4,0.7,1,0.7,1.6c0,0.6-0.2,1.2-0.7,1.6C1.9,327.2,1.3,327.4,0.7,327.4z"></path>
        <path class="st1" d="M0.7,327.7H-82c-0.7,0-1.3-0.3-1.8-0.8c-0.5-0.5-0.8-1.1-0.8-1.8c0-0.7,0.3-1.3,0.8-1.8
		c0.5-0.5,1.1-0.8,1.8-0.8H0.7c0.7,0,1.3,0.3,1.8,0.8c0.5,0.5,0.8,1.1,0.8,1.8s-0.3,1.3-0.8,1.8C2,327.4,1.3,327.7,0.7,327.7z
		 M-82,323c-0.6,0-1.1,0.2-1.5,0.6c-0.4,0.4-0.6,0.9-0.6,1.5c0,0.6,0.2,1.1,0.6,1.5c0.4,0.4,0.9,0.6,1.5,0.6H0.7
		c0.5,0,1.1-0.2,1.5-0.6c0.4-0.4,0.6-0.9,0.6-1.5s-0.2-1.1-0.6-1.5c-0.4-0.4-0.9-0.6-1.5-0.6H-82z"></path>
</g>
    <g>
	<path class="st0" d="M8.4,341.4c-2.7,0-5.2-1.1-7.1-3c-1.9-1.9-3-4.5-3-7.1v-14c0-2.7,1.1-5.2,3-7.1c1.9-1.9,4.5-3,7.1-3
		c2.7,0,5.2,1.1,7.1,3c1.9,1.9,3,4.5,3,7.1v14c0,2.7-1.1,5.2-3,7.1C13.6,340.4,11.1,341.4,8.4,341.4z M8.4,311.9
		c-1.4,0-2.8,0.6-3.8,1.6c-1,1-1.6,2.4-1.6,3.8v14c0,1.4,0.6,2.8,1.6,3.8c1,1,2.4,1.6,3.8,1.6c1.4,0,2.8-0.6,3.8-1.6
		c1-1,1.6-2.4,1.6-3.8v-14c0-1.4-0.6-2.8-1.6-3.8S9.8,311.9,8.4,311.9z"></path>
        <path class="st1" d="M8.4,341.7c-2.8,0-5.4-1.1-7.3-3c-2-1.9-3-4.5-3-7.3v-14c0-2.8,1.1-5.4,3-7.3c2-2,4.5-3,7.3-3
		c2.8,0,5.4,1.1,7.3,3c2,2,3,4.5,3,7.3v14c0,2.8-1.1,5.4-3,7.3C13.8,340.6,11.2,341.7,8.4,341.7z M8.4,307.5c-2.6,0-5.1,1-6.9,2.9
		c-1.9,1.9-2.9,4.3-2.9,6.9v14c0,2.6,1,5.1,2.9,6.9c1.9,1.9,4.3,2.9,6.9,2.9c2.6,0,5.1-1,6.9-2.9c1.9-1.9,2.9-4.3,2.9-6.9v-14
		c0-2.6-1-5.1-2.9-6.9C13.5,308.5,11,307.5,8.4,307.5z M8.4,337c-1.5,0-2.9-0.6-4-1.7c-1.1-1.1-1.7-2.5-1.7-4v-14
		c0-1.5,0.6-2.9,1.7-4c1.1-1.1,2.5-1.7,4-1.7s2.9,0.6,4,1.7c1.1,1.1,1.7,2.5,1.7,4v14c0,1.5-0.6,2.9-1.7,4
		C11.3,336.4,9.9,337,8.4,337z M8.4,312.2c-1.4,0-2.7,0.5-3.7,1.5c-1,1-1.5,2.3-1.5,3.7v14c0,1.4,0.5,2.7,1.5,3.7
		c1,1,2.3,1.5,3.7,1.5s2.7-0.5,3.7-1.5c1-1,1.5-2.3,1.5-3.7v-14c0-1.4-0.5-2.7-1.5-3.7C11.1,312.7,9.8,312.2,8.4,312.2z"></path>
</g>
    <g>
	<path class="st0" d="M-89.7,341.4c-2.7,0-5.2-1.1-7.1-3c-1.9-1.9-3-4.5-3-7.1v-14c0-2.7,1.1-5.2,3-7.1c1.9-1.9,4.5-3,7.1-3
		s5.2,1.1,7.1,3c1.9,1.9,3,4.5,3,7.1v14c0,2.7-1.1,5.2-3,7.1C-84.5,340.4-87,341.4-89.7,341.4z M-89.7,311.9c-1.4,0-2.8,0.6-3.8,1.6
		c-1,1-1.6,2.4-1.6,3.8v14c0,1.4,0.6,2.8,1.6,3.8c1,1,2.4,1.6,3.8,1.6c1.4,0,2.8-0.6,3.8-1.6c1-1,1.6-2.4,1.6-3.8v-14
		c0-1.4-0.6-2.8-1.6-3.8C-86.9,312.5-88.3,311.9-89.7,311.9z"></path>
        <path class="st1" d="M-89.7,341.7c-2.8,0-5.4-1.1-7.3-3c-2-2-3-4.5-3-7.3v-14c0-2.8,1.1-5.4,3-7.3c2-2,4.5-3,7.3-3s5.4,1.1,7.3,3
		s3,4.5,3,7.3v14c0,2.8-1.1,5.4-3,7.3S-86.9,341.7-89.7,341.7z M-89.7,307.5c-2.6,0-5.1,1-6.9,2.9c-1.9,1.9-2.9,4.3-2.9,6.9v14
		c0,2.6,1,5.1,2.9,6.9c1.9,1.9,4.3,2.9,6.9,2.9c2.6,0,5.1-1,6.9-2.9s2.9-4.3,2.9-6.9v-14c0-2.6-1-5.1-2.9-6.9
		S-87.1,307.5-89.7,307.5z M-89.7,337c-1.5,0-2.9-0.6-4-1.7s-1.7-2.5-1.7-4v-14c0-1.5,0.6-2.9,1.7-4s2.5-1.7,4-1.7s2.9,0.6,4,1.7
		s1.7,2.5,1.7,4v14c0,1.5-0.6,2.9-1.7,4S-88.2,337-89.7,337z M-89.7,312.2c-1.4,0-2.7,0.5-3.7,1.5s-1.5,2.3-1.5,3.7v14
		c0,1.4,0.5,2.7,1.5,3.7s2.3,1.5,3.7,1.5S-87,336-86,335s1.5-2.3,1.5-3.7v-14c0-1.4-0.5-2.7-1.5-3.7S-88.3,312.2-89.7,312.2z"></path>
</g>
    <g>
	<path class="st0" d="M-34.8,471.5c-1.6,0-3.2-0.3-4.8-0.9l-25.9-9.5c-1.1-0.4-2.3-0.6-3.5-0.6h-5.3c-0.2,0-0.4-0.1-0.6-0.2
		c-0.2-0.2-0.2-0.4-0.2-0.6c0-0.2,0.1-0.4,0.2-0.6c0.2-0.2,0.4-0.2,0.6-0.2h5.3c1.4,0,2.7,0.2,4,0.7l25.9,9.6
		c1.8,0.7,3.8,0.9,5.7,0.6c1.9-0.2,3.8-0.9,5.4-2l39.5-26.9c2.7-2,3.3-3.9,1.6-6.6c-2-2.7-5.6-1.6-6.6-1.2l-26.1,12.8
		c-0.2,0.1-0.4,0.1-0.6,0c-0.2-0.1-0.4-0.2-0.5-0.4c-0.1-0.2-0.1-0.4,0-0.6c0.1-0.2,0.2-0.4,0.4-0.5L6,431.6
		c3.5-1.4,6.8-0.8,8.6,1.7c3,5.1-0.9,7.8-2.2,8.8l-39.3,27C-29.2,470.7-32,471.5-34.8,471.5z"></path>
        <path class="st0" d="M-34.7,472.1C-34.7,472.1-34.8,472.1-34.7,472.1c-1.8,0-3.4-0.3-5-0.9l-25.9-9.5c-1-0.4-2.1-0.6-3.3-0.6h-5.3
		c-0.4,0-0.7-0.1-1-0.4c-0.3-0.3-0.4-0.6-0.4-1c0-0.4,0.1-0.7,0.4-1c0.3-0.3,0.6-0.4,1-0.4h5.3c1.5,0,2.9,0.3,4.2,0.8l25.9,9.6
		c1.7,0.6,3.6,0.8,5.4,0.6c1.8-0.2,3.6-0.9,5.1-1.9l39.5-26.9c2.5-1.8,2.9-3.4,1.5-5.8c-2-2.7-5.8-1-5.8-0.9l-26.1,12.8
		c-0.3,0.2-0.7,0.2-1.1,0.1c-0.4-0.1-0.6-0.4-0.8-0.7c-0.2-0.3-0.2-0.7-0.1-1.1c0.1-0.4,0.4-0.6,0.7-0.8l26.2-12.8
		c3.8-1.5,7.4-0.8,9.4,1.9c3.2,5.5-0.9,8.6-2.2,9.6l-0.1,0.1l-39.4,27C-29,471.2-31.8,472.1-34.7,472.1z M-34.8,470.9L-34.8,470.9
		c2.7,0,5.3-0.8,7.5-2.3l39.4-27c1.5-1.1,4.5-3.4,1.9-7.9c-1.7-2.2-4.6-2.8-7.9-1.5L-19.9,445c0,0-0.1,0.1-0.1,0.1
		c0,0.1,0,0.1,0,0.2c0,0,0.1,0.1,0.1,0.1c0.1,0,0.1,0,0.2,0l26.1-12.8c1.6-0.8,5.2-1.5,7.3,1.4c1.8,2.9,1.2,5.3-1.8,7.4l-39.5,26.9
		c-1.7,1.1-3.6,1.9-5.7,2.1c-2,0.2-4.1,0-6-0.7l-25.9-9.6c-1.2-0.5-2.5-0.7-3.8-0.7h-5.3c-0.1,0-0.1,0-0.2,0.1c0,0-0.1,0.1-0.1,0.2
		c0,0.1,0,0.1,0.1,0.2c0,0,0.1,0.1,0.2,0.1h5.3c1.3,0,2.5,0.2,3.7,0.7l25.9,9.5C-37.9,470.6-36.3,470.9-34.8,470.9
		C-34.8,470.9-34.8,470.9-34.8,470.9z"></path>
</g>
    <g>
	<path class="st0" d="M-76.5,463.4h-9.9c-0.4,0-0.8-0.1-1.2-0.2c-0.4-0.2-0.7-0.4-1-0.7c-0.3-0.3-0.5-0.6-0.7-1
		c-0.2-0.4-0.2-0.8-0.2-1.2v-31.4c0-0.8,0.3-1.6,0.9-2.2c0.6-0.6,1.4-0.9,2.2-0.9h9.9c0.8,0,1.6,0.3,2.2,0.9
		c0.6,0.6,0.9,1.4,0.9,2.2v31.4c0,0.8-0.3,1.6-0.9,2.2C-74.9,463-75.7,463.3-76.5,463.4z M-86.4,427.3c-0.4,0-0.8,0.2-1.1,0.4
		c-0.3,0.3-0.4,0.7-0.4,1.1v31.4c0,0.4,0.2,0.8,0.4,1.1c0.3,0.3,0.7,0.4,1.1,0.4h9.9c0.4,0,0.8-0.2,1.1-0.4c0.3-0.3,0.4-0.7,0.4-1.1
		v-31.4c0-0.4-0.2-0.8-0.4-1.1c-0.3-0.3-0.7-0.4-1.1-0.4H-86.4z"></path>
        <path class="st0" d="M-86.4,464c-0.5,0-0.9-0.1-1.4-0.3c-0.5-0.2-0.9-0.5-1.2-0.8c-0.4-0.3-0.6-0.8-0.8-1.2
		c-0.2-0.5-0.3-0.9-0.3-1.4v-31.4c0-1,0.4-1.9,1.1-2.6s1.6-1.1,2.6-1.1h9.9c1,0,1.9,0.4,2.6,1.1c0.7,0.7,1.1,1.6,1.1,2.6v31.4
		c0,1-0.4,1.9-1.1,2.6c-0.7,0.7-1.6,1.1-2.6,1.1L-86.4,464C-86.4,464-86.4,464-86.4,464z M-86.4,426.3c-0.7,0-1.3,0.3-1.8,0.7
		c-0.5,0.5-0.7,1.1-0.7,1.8v31.4c0,0.3,0.1,0.7,0.2,1c0.1,0.3,0.3,0.6,0.6,0.8c0.2,0.2,0.5,0.4,0.8,0.5c0.3,0.1,0.7,0.2,1,0.2h9.9
		c0.7,0,1.3-0.3,1.7-0.8c0.5-0.5,0.7-1.1,0.7-1.8v-31.4c0-0.7-0.3-1.3-0.7-1.8c-0.5-0.5-1.1-0.7-1.8-0.7H-86.4z M-76.5,462.3h-9.9
		c-0.6,0-1.1-0.2-1.5-0.6c-0.4-0.4-0.6-0.9-0.6-1.5v-31.4c0-0.6,0.2-1.1,0.6-1.5c0.4-0.4,0.9-0.6,1.5-0.6h9.9c0.6,0,1.1,0.2,1.5,0.6
		c0.4,0.4,0.6,0.9,0.6,1.5v31.4c0,0.6-0.2,1.1-0.6,1.5C-75.4,462.1-75.9,462.3-76.5,462.3z M-86.4,427.9c-0.2,0-0.5,0.1-0.6,0.3
		c-0.2,0.2-0.3,0.4-0.3,0.6v31.4c0,0.2,0.1,0.5,0.3,0.6c0.2,0.2,0.4,0.3,0.6,0.3h9.9c0.2,0,0.5-0.1,0.6-0.3c0.2-0.2,0.3-0.4,0.3-0.6
		v-31.4c0-0.2-0.1-0.5-0.3-0.6c-0.2-0.2-0.4-0.3-0.6-0.3H-86.4z"></path>
</g>
    <g>
	<path class="st2" d="M-31.2,411.9h-11.1c-0.2,0-0.4-0.1-0.6-0.2c-0.2-0.2-0.2-0.4-0.2-0.6v-33.1c0-0.1,0-0.3,0.1-0.4
		c0.1-0.1,0.1-0.2,0.2-0.3l5.6-4.2c0.1-0.1,0.3-0.2,0.5-0.2c0.2,0,0.4,0.1,0.5,0.2l6.6,5.4c0.1,0.1,0.2,0.2,0.2,0.3
		c0.1,0.1,0.1,0.2,0.1,0.3v4c0,0.2-0.1,0.4-0.2,0.5l-3,3.5l2.9,3.2c0.1,0.1,0.2,0.3,0.2,0.5v3.1c0,0.2-0.1,0.3-0.1,0.5l-2.4,3.4
		l2.7,4.2c0.1,0.1,0.1,0.3,0.1,0.4s0,0.3-0.1,0.4l-1.3,3v5.3c0,0.2-0.1,0.4-0.2,0.5C-30.9,411.7-31,411.8-31.2,411.9z M-41.5,410.2
		h9.5v-4.6c0-0.1,0-0.2,0-0.3l1.2-2.7l-2.8-4.2c-0.1-0.1-0.1-0.3-0.1-0.5s0-0.3,0.1-0.5l2.5-3.6v-2.6l-3.2-3.5
		c-0.1-0.1-0.2-0.3-0.2-0.5c0-0.2,0.1-0.4,0.2-0.5l3.3-3.9v-3.3l-5.7-4.8l-4.9,3.6V410.2z"></path>
        <path class="st2" d="M-31.2,412.5h-11.1c-0.4,0-0.7-0.1-1-0.4c-0.3-0.3-0.4-0.6-0.4-1v-33.1c0-0.2,0-0.4,0.1-0.6
		c0.1-0.2,0.2-0.4,0.4-0.5l5.6-4.2c0.5-0.4,1.2-0.4,1.7,0l6.6,5.4c0.2,0.1,0.3,0.3,0.4,0.5c0.1,0.2,0.1,0.4,0.1,0.6v3.9
		c0,0.3-0.1,0.6-0.3,0.9l-2.7,3.1l2.6,2.8c0.2,0.3,0.4,0.6,0.4,0.9v3.2c0,0.3-0.1,0.6-0.3,0.8l-2.1,3l2.5,3.9
		c0.1,0.2,0.2,0.5,0.2,0.7c0,0.2-0.1,0.5-0.2,0.7l-1.3,2.8v5.1c0,0.4-0.1,0.7-0.4,1C-30.5,412.3-30.8,412.4-31.2,412.5L-31.2,412.5z
		 M-36.7,373.5c0,0-0.1,0-0.1,0l-5.6,4.2c-0.1,0.1-0.1,0.1-0.1,0.2V411c0,0.1,0,0.1,0.1,0.1c0,0,0.1,0.1,0.1,0.1h11
		c0,0,0.1,0,0.1-0.1c0,0,0.1-0.1,0.1-0.1v-5.4l1.4-3.2c0,0,0-0.1,0-0.1l-2.9-4.5l2.6-3.7c0,0,0-0.1,0-0.1v-3.1c0,0,0-0.1-0.1-0.1
		l-3.3-3.6l3.4-3.9c0,0,0-0.1,0-0.1l0-4L-30,379l-6.6-5.4C-36.6,373.5-36.6,373.5-36.7,373.5z M-31.4,410.8h-10.7V378l5.5-4l6.3,5.2
		v3.8l-3.4,4c0,0-0.1,0.1-0.1,0.1s0,0.1,0.1,0.1l3.4,3.6v3l-2.7,3.8c0,0,0,0.1,0,0.1s0,0.1,0,0.1l2.9,4.5l-1.3,2.9l0,0.2V410.8z
		 M-40.9,409.6h8.3v-4c0-0.2,0-0.3,0-0.5l0-0.1l1.1-2.4l-2.6-4c-0.2-0.2-0.2-0.5-0.2-0.8c0-0.3,0.1-0.6,0.2-0.8l2.4-3.5v-2.2l-3-3.3
		c-0.2-0.3-0.4-0.6-0.4-0.9c0-0.3,0.1-0.7,0.4-0.9l3.1-3.7v-2.8l-5.2-4.3l-4.2,3.1V409.6z"></path>
</g>
    <g>
	<path class="st2" d="M-44.2,416.9c-0.2,0-0.3,0-0.4-0.1c-0.1-0.1-0.2-0.2-0.3-0.4l-0.9-2.2c-0.2-0.4-0.3-0.8-0.3-1.2
		s0.1-0.9,0.3-1.2c0.2-0.4,0.6-0.8,1-1c0.4-0.3,0.9-0.4,1.4-0.4h1.2c0.2,0,0.4,0.1,0.6,0.2c0.2,0.2,0.2,0.4,0.2,0.6
		s-0.1,0.4-0.2,0.6c-0.2,0.2-0.4,0.2-0.6,0.2h-1.2c-0.2,0-0.4,0-0.6,0.1c-0.2,0.1-0.3,0.3-0.4,0.4c-0.1,0.1-0.1,0.3-0.1,0.5
		c0,0.2,0,0.3,0.1,0.5l1,2.3c0,0.1,0.1,0.2,0.1,0.3c0,0.1,0,0.2-0.1,0.3c0,0.1-0.1,0.2-0.2,0.3c-0.1,0.1-0.2,0.1-0.3,0.2
		C-44,416.8-44.1,416.9-44.2,416.9z"></path>
        <path class="st2" d="M-44.2,417.5L-44.2,417.5c-0.3,0-0.5-0.1-0.8-0.2c-0.2-0.2-0.4-0.4-0.5-0.6l-0.9-2.2c-0.2-0.4-0.4-0.9-0.4-1.5
		s0.1-1.1,0.4-1.5c0.3-0.5,0.7-0.9,1.2-1.3c0.5-0.3,1.1-0.5,1.7-0.5h1.2c0.4,0,0.7,0.1,1,0.4c0.3,0.3,0.4,0.6,0.4,1
		c0,0.4-0.2,0.7-0.4,1c-0.3,0.3-0.6,0.4-1,0.4h-1.2c-0.1,0-0.2,0-0.3,0.1c-0.1,0-0.1,0.1-0.2,0.2c0,0.1-0.1,0.1-0.1,0.2
		c0,0.1,0,0.1,0,0.2l1,2.4c0.1,0.2,0.1,0.3,0.1,0.5c0,0.2,0,0.4-0.1,0.5c-0.1,0.2-0.2,0.3-0.3,0.5c-0.1,0.1-0.3,0.2-0.5,0.3
		C-43.8,417.4-44,417.5-44.2,417.5L-44.2,417.5z M-44.2,416.2l0.5,0.4L-44.2,416.2l0.1-0.2l-1-2.4c-0.1-0.2-0.2-0.4-0.2-0.7
		c0-0.3,0.1-0.6,0.2-0.8c0.1-0.2,0.4-0.5,0.6-0.6c0.3-0.2,0.6-0.3,0.9-0.2h1.2c0.1,0,0.1,0,0.2-0.1c0,0,0.1-0.1,0.1-0.2
		s0-0.1-0.1-0.2c0,0-0.1-0.1-0.2-0.1h-1.2c-0.4,0-0.8,0.1-1.1,0.3c-0.3,0.2-0.6,0.5-0.8,0.8c-0.2,0.3-0.3,0.6-0.3,1s0.1,0.7,0.3,0.9
		l1,2.3c0,0,0,0.1,0.1,0.1C-44.3,416.2-44.3,416.3-44.2,416.2C-44.2,416.3-44.2,416.2-44.2,416.2z"></path>
</g>
    <g>
	<path class="st2" d="M-29.2,416.9c-0.1,0-0.2,0-0.3,0c-0.2-0.1-0.4-0.2-0.4-0.4c-0.1-0.2-0.1-0.4,0-0.6l0.9-2.2v-0.1
		c0.1-0.1,0.1-0.3,0.1-0.5c0-0.2,0-0.3-0.1-0.5c-0.1-0.2-0.2-0.3-0.4-0.4c-0.2-0.1-0.4-0.2-0.6-0.2h-1.4c-0.2,0-0.4-0.1-0.6-0.2
		c-0.2-0.2-0.2-0.4-0.2-0.6c0-0.2,0.1-0.4,0.2-0.6c0.2-0.2,0.4-0.2,0.6-0.2h1.4c0.5,0,1,0.1,1.4,0.4c0.4,0.3,0.8,0.6,1,1.1
		c0.2,0.4,0.3,0.8,0.3,1.3c0,0.4-0.1,0.9-0.4,1.3l-0.8,2.2c-0.1,0.1-0.2,0.3-0.3,0.3C-28.9,416.8-29,416.9-29.2,416.9z"></path>
        <path class="st2" d="M-29.3,417.5c-0.1,0-0.2,0-0.2,0l-0.2,0c-0.3-0.1-0.6-0.4-0.7-0.8c-0.1-0.3-0.1-0.7,0-1.1l0.9-2.1v-0.2
		l0.1-0.1c0,0,0-0.1,0-0.1s0-0.1,0-0.1c-0.1-0.1-0.1-0.2-0.2-0.2c-0.1,0-0.2-0.1-0.3-0.1h-1.4c-0.4,0-0.7-0.1-1-0.4
		c-0.3-0.3-0.4-0.6-0.4-1s0.1-0.7,0.4-1c0.3-0.3,0.6-0.4,1-0.4h1.4c0.6,0,1.2,0.1,1.7,0.5c0.5,0.3,1,0.8,1.2,1.3
		c0.3,0.5,0.4,1,0.4,1.6c0,0.5-0.2,1-0.4,1.5l-0.8,2.1c-0.1,0.3-0.3,0.5-0.6,0.6c-0.2,0.1-0.5,0.2-0.7,0.2
		C-29.2,417.5-29.2,417.5-29.3,417.5z M-28.4,413.6l0,0.2l-0.9,2.2c0,0,0,0.1,0,0.2c0,0,0,0.1,0.1,0.1c0,0,0,0,0,0l0.1,0l0.1,0
		c0,0,0.1,0,0.1,0c0,0,0.1,0,0.1-0.1l0.8-2.2c0.2-0.3,0.3-0.6,0.3-1c0-0.3-0.1-0.7-0.2-1c-0.2-0.3-0.5-0.6-0.8-0.8
		c-0.3-0.2-0.7-0.3-1.1-0.3h-1.4c-0.1,0-0.1,0-0.2,0.1c0,0-0.1,0.1-0.1,0.2s0,0.1,0.1,0.2c0,0,0.1,0.1,0.2,0.1h1.4c0,0,0,0,0,0
		c0.3,0,0.6,0.1,0.9,0.2c0.3,0.2,0.5,0.4,0.6,0.7c0.1,0.2,0.2,0.5,0.2,0.8C-28.3,413.2-28.3,413.4-28.4,413.6z"></path>
</g>
    <g>
	<path class="st2" d="M-20.9,442.7c-0.1,0-0.2,0-0.4,0c-0.2-0.1-0.3-0.3-0.4-0.5c-0.1-0.2-0.1-0.4,0-0.6c1.2-2.4,1.9-5,1.9-7.7
		c0-4.5-1.8-8.8-4.9-11.9c-3.2-3.2-7.5-4.9-11.9-4.9c-4.5,0-8.8,1.8-11.9,4.9c-3.2,3.2-4.9,7.5-4.9,11.9c0,0.3,0,0.6,0,0.9l-1.6,0.1
		c0-0.4,0-0.7,0-1.1c0-2.8,0.6-5.6,1.8-8.1c1.2-2.5,3-4.7,5.2-6.5c2.2-1.7,4.8-2.9,7.5-3.5c2.7-0.6,5.6-0.6,8.3,0.1
		c2.7,0.7,5.3,1.9,7.4,3.7c2.2,1.8,3.9,4,5.1,6.6c1.2,2.5,1.7,5.3,1.7,8.1c-0.1,2.8-0.8,5.6-2,8c-0.1,0.1-0.2,0.2-0.3,0.3
		C-20.7,442.7-20.8,442.7-20.9,442.7z"></path>
        <path class="st2" d="M-21.1,443.3c-0.1,0-0.2,0-0.3,0l-0.2-0.1c-0.3-0.2-0.6-0.5-0.7-0.8c-0.1-0.4-0.1-0.7,0.1-1.1
		c1.2-2.3,1.8-4.9,1.8-7.4c0-4.4-1.7-8.4-4.8-11.5c-3.1-3.1-7.2-4.8-11.5-4.8c-4.4,0-8.4,1.7-11.5,4.8c-3.1,3.1-4.8,7.2-4.8,11.5
		v1.5l-2.8,0.2v-1.7c0-2.9,0.7-5.8,1.9-8.4c1.3-2.6,3.1-4.9,5.4-6.7c2.3-1.8,4.9-3,7.7-3.7c2.8-0.6,5.8-0.6,8.6,0.1
		c2.8,0.7,5.4,2,7.7,3.8c2.2,1.8,4,4.2,5.2,6.8c1.2,2.6,1.8,5.5,1.7,8.4c-0.1,2.9-0.8,5.7-2.1,8.3c-0.2,0.3-0.4,0.4-0.6,0.5
		c-0.2,0.1-0.4,0.2-0.6,0.2C-21,443.3-21,443.3-21.1,443.3z M-36.7,416.4c4.7,0,9.1,1.8,12.4,5.1c3.3,3.3,5.1,7.7,5.1,12.4
		c0,2.8-0.7,5.5-1.9,8c0,0,0,0.1,0,0.2c0,0,0,0.1,0,0.1c0,0,0,0,0,0l0.1,0l0.1,0c0,0,0.1,0,0.1,0c0,0,0.1,0,0.1-0.1
		c1.2-2.3,1.9-5,1.9-7.7c0.1-2.7-0.5-5.4-1.6-7.9c-1.1-2.4-2.8-4.6-4.9-6.4c-2.1-1.7-4.6-2.9-7.2-3.6c-2.6-0.6-5.4-0.7-8-0.1
		c-2.6,0.6-5.1,1.8-7.3,3.4c-2.1,1.7-3.9,3.8-5,6.3c-1.2,2.4-1.8,5.1-1.8,7.8v0.4l0.4,0v-0.4c0-4.7,1.8-9.1,5.1-12.4
		S-41.4,416.4-36.7,416.4z"></path>
</g>
    <g>
	<path class="st0" d="M-25.8,452.1h-14.5c-0.2,0-0.4-0.1-0.6-0.2c-0.2-0.2-0.2-0.4-0.2-0.6s0.1-0.4,0.2-0.6c0.2-0.2,0.4-0.2,0.6-0.2
		H-26c0.7,0.1,1.4,0,2-0.2c0.7-0.2,1.3-0.6,1.8-1c0.5-0.5,0.9-1,1.2-1.7c0.3-0.6,0.4-1.3,0.4-2c0-0.4,0-0.9-0.1-1.3
		c-0.3-1.1-0.9-2.2-1.8-2.9c-0.9-0.7-2-1.2-3.2-1.2l-17.7-0.4c-1.8,0-3.5-0.4-5-1.2l-15.3-7.3c-1.4-0.7-3-1-4.6-1.1h-5.8
		c-0.2,0-0.4-0.1-0.6-0.2c-0.2-0.2-0.2-0.4-0.2-0.6s0.1-0.4,0.2-0.6c0.2-0.2,0.4-0.2,0.6-0.2h5.7c1.8,0,3.6,0.4,5.3,1.2L-48,437
		c1.4,0.7,2.9,1,4.4,1.1l17.8,0.4c1.5,0,3,0.6,4.2,1.6c1.2,1,2,2.3,2.4,3.8c0.1,0.5,0.2,1.1,0.2,1.6c0,0.9-0.2,1.8-0.6,2.6
		c-0.4,0.8-0.9,1.6-1.5,2.2C-22.4,451.5-24.1,452.1-25.8,452.1z"></path>
        <path class="st0" d="M-25.6,452.7c-0.1,0-0.2,0-0.2,0h-14.5c-0.4,0-0.7-0.1-1-0.4c-0.3-0.3-0.4-0.6-0.4-1c0-0.4,0.2-0.7,0.4-1
		c0.3-0.3,0.6-0.4,1-0.4H-26c0.7,0.1,1.3,0,1.8-0.2c0.6-0.2,1.1-0.5,1.5-0.9c0.5-0.4,0.8-0.9,1-1.5c0.2-0.6,0.4-1.1,0.4-1.8
		c0-0.4,0-0.8-0.1-1.2c-0.2-1-0.8-1.9-1.6-2.6c-0.8-0.7-1.8-1-2.9-1l-17.7-0.4c-1.8,0-3.7-0.5-5.3-1.3l-15.3-7.3
		c-1.4-0.6-2.9-1-4.4-1h-5.8c-0.4,0-0.7-0.1-1-0.4c-0.3-0.3-0.4-0.6-0.4-1s0.1-0.7,0.4-1c0.3-0.3,0.6-0.4,1-0.4h5.7
		c1.9,0,3.8,0.4,5.5,1.3l15.3,7.3c1.3,0.6,2.7,1,4.1,1l17.8,0.4c1.7,0,3.3,0.6,4.6,1.7c1.3,1.1,2.2,2.5,2.6,4.2
		c0.1,0.6,0.2,1.2,0.2,1.8c0,1-0.2,2-0.6,2.9c-0.4,0.9-1,1.7-1.7,2.4C-22.1,452-23.8,452.7-25.6,452.7z M-26.1,451l-14.2,0
		c-0.1,0-0.1,0-0.2,0.1c0,0-0.1,0.1-0.1,0.2c0,0.1,0,0.1,0.1,0.2c0,0,0.1,0.1,0.2,0.1h14.5c1.6,0.1,3-0.5,4.2-1.6
		c0.6-0.6,1.1-1.2,1.4-2s0.5-1.6,0.5-2.4c0-0.5-0.1-1-0.2-1.5c-0.3-1.4-1.1-2.6-2.1-3.5c-1.1-0.9-2.5-1.4-3.9-1.4l-17.8-0.4
		c-1.6,0-3.2-0.4-4.6-1.1l-15.3-7.3c-1.6-0.7-3.3-1.1-5-1.1h-5.7c-0.1,0-0.1,0-0.2,0.1c0,0-0.1,0.1-0.1,0.2s0,0.1,0.1,0.2
		c0,0,0.1,0.1,0.2,0.1h5.8c1.7,0,3.4,0.4,4.9,1.1l15.3,7.4c1.5,0.7,3.1,1.1,4.8,1.2l17.7,0.4c1.3,0,2.6,0.5,3.6,1.3
		c1,0.8,1.7,2,2,3.2c0.1,0.5,0.1,1,0.1,1.4c0,0.8-0.2,1.5-0.5,2.2c-0.3,0.7-0.8,1.3-1.3,1.9c-0.6,0.5-1.2,0.9-2,1.2
		C-24.5,451-25.3,451.1-26.1,451z"></path>
</g>
</svg>
